<svg xmlns="http://www.w3.org/2000/svg">
<defs>
<font id="DBAiry-Std" horiz-adv-x="0" >
  <font-face 
    font-family="DB Airy Std"
    font-weight="400"
    font-stretch="normal"
    units-per-em="4096"
    panose-1="2 0 5 6 0 0 0 2 0 4"
    ascent="3276"
    descent="-820"
    x-height="1564"
    cap-height="2122"
    bbox="-1835 -1159 3164 3091"
    underline-thickness="143"
    underline-position="-390"
    unicode-range="U+0020-U+F880"
  />
<missing-glyph horiz-adv-x="1696" 
d="M131 569q0 95 37.5 168t98.5 122t139 74t159 25t157.5 -22t135 -67.5t94 -115.5t35.5 -167v-475h434v827h115v-934h-774v107h119v487q0 61 -24 107.5t-66 77t-99 46t-123 15.5q-61 0 -118.5 -17.5t-102 -50.5t-71.5 -81t-27 -109v-439l237 238q-11 4 -25.5 14.5t-28 27
t-23 39.5t-9.5 54q0 74 45 117t119 43q35 0 64 -13t49.5 -35t31.5 -51t11 -61q0 -29 -6.5 -51t-16.5 -38t-20.5 -27l-18.5 -19l-204 -197l-92 -85.5l-101 -98.5h-131v565zM1536 1618v-582q-98 31 -211.5 58t-238.5 47t-259 31.5t-274 11.5q-99 0 -194 -6t-191 -19
q24 92 78 175.5t135.5 146.5t189.5 100t240 37q127 0 229.5 -28.5t179 -70.5t128 -89.5t77.5 -86.5l-0.5 15.5t-0.5 39.5t-1 54.5t-1 61t-0.5 58t-0.5 46.5h115zM823 1294q43 -3 98 -9t114 -15t118.5 -20.5t112 -25.5t94 -30t65.5 -35q-41 81 -107 144.5t-146.5 107t-171 66
t-181.5 22.5q-69 0 -136 -13t-128.5 -40t-115 -68t-95.5 -96q74 9 147.5 12.5t147.5 3.5q46 0 92 -0.5t92 -3.5zM1753 1692q53 0 77.5 -32.5t24.5 -78.5q0 -17 -6 -33.5t-18.5 -30t-32 -22t-45.5 -8.5q-24 0 -44 8.5t-33.5 22t-21 30t-7.5 33.5q0 46 28.5 78.5t77.5 32.5z
M1753 1499q26 0 43.5 8t28 20.5t14.5 27t4 26.5q0 46 -21.5 72t-68.5 26q-46 0 -70 -26t-24 -72q0 -34 22.5 -58t71.5 -24zM627 520q0 34 -22.5 50t-47.5 16q-28 0 -49 -16t-21 -50t21 -47.5t49 -13.5q12 0 24.5 3t22.5 10.5t16.5 19t6.5 28.5zM1741 1577h-12v-57h-21v139
h45q49 0 49 -41q0 -28 -12.5 -34.5t-28.5 -6.5l41 -57h-20zM1729 1638v-57h24q29 0 29 37q0 3 -6.5 11.5t-22.5 8.5h-24z" />
    <glyph glyph-name="ellipsis" unicode="&#x2e;&#x2e;&#x2e;" horiz-adv-x="2004" 
d="M221 312h306v-312h-306v312zM849 312h306v-312h-306v312zM1477 312h306v-312h-306v312z" />
    <glyph glyph-name="dochadaphinthuthai" unicode="&#xe0e;&#xe3a;" horiz-adv-x="1943" 
d="M1443 1024q0 105 -33 194t-97 154t-157 102t-213 37q-157 0 -292 -64.5t-231 -179.5q58 -54 100.5 -117t70 -128.5t40.5 -129t13 -118.5q0 -227 -99 -382.5t-291 -225.5l-96 186q137 68 201 172.5t64 249.5q0 60 -19.5 123.5t-57 123.5t-92.5 114.5t-126 98.5
q54 103 135.5 191.5t185.5 154t228.5 102.5t265.5 37q150 0 284 -45.5t234 -133.5t158.5 -217t58.5 -295v-1327h-532l-388 189l-423 -213l-100 158l524 261l435 -209h249v1137zM1371 -544q0 37 14 69.5t38.5 57t56.5 38.5t68 14q37 0 69.5 -14t57 -38.5t38.5 -57t14 -69.5
q0 -36 -14 -68t-38.5 -56.5t-57 -38.5t-69.5 -14q-36 0 -68 14t-56.5 38.5t-38.5 56.5t-14 68z" />
    <glyph glyph-name="topatakphintuthai" unicode="&#xe0f;&#xe3a;" horiz-adv-x="1945" 
d="M1351 -544q0 37 14 69.5t38.5 57t56.5 38.5t68 14q37 0 69.5 -14t57 -38.5t38.5 -57t14 -69.5q0 -36 -14 -68t-38.5 -56.5t-57 -38.5t-69.5 -14q-36 0 -68 14t-56.5 38.5t-38.5 56.5t-14 68zM423 774q0 60 -19.5 123.5t-57 123.5t-92.5 114.5t-126 98.5
q54 103 135.5 191.5t185.5 154t228.5 102.5t265.5 37q150 0 284 -45.5t234 -133.5t158.5 -217t58.5 -295v-1327h-537l-238 144l-266 -170l-426 176l100 164l320 -133l272 173l280 -168h260v1137q0 105 -33 194t-97 154t-157 102t-213 37q-157 0 -292 -64.5t-231 -179.5
q58 -54 100.5 -117t70 -128.5t40.5 -129t13 -118.5q0 -227 -99 -382.5t-291 -225.5l-96 186q137 68 201 172.5t64 249.5z" />
    <glyph glyph-name="dochadasarauthai" unicode="&#xe0e;&#xe38;" horiz-adv-x="1943" 
d="M1443 -958v268q0 43 -18.5 69t-59.5 26q-23 0 -43.5 -6t-43.5 -17l-54 154q38 22 75.5 34.5t68.5 19t53.5 8.5t31.5 2q66 0 109.5 -23t69 -57.5t36 -76t10.5 -78.5v-323h-235zM1443 1024q0 105 -33 194t-97 154t-157 102t-213 37q-157 0 -292 -64.5t-231 -179.5
q58 -54 100.5 -117t70 -128.5t40.5 -129t13 -118.5q0 -227 -99 -382.5t-291 -225.5l-96 186q137 68 201 172.5t64 249.5q0 60 -19.5 123.5t-57 123.5t-92.5 114.5t-126 98.5q54 103 135.5 191.5t185.5 154t228.5 102.5t265.5 37q150 0 284 -45.5t234 -133.5t158.5 -217
t58.5 -295v-1327h-532l-388 189l-423 -213l-100 158l524 261l435 -209h249v1137z" />
    <glyph glyph-name="topataksarauthai" unicode="&#xe0f;&#xe38;" horiz-adv-x="1944" 
d="M1442 -958v268q0 43 -18.5 69t-59.5 26q-23 0 -43.5 -6t-43.5 -17l-54 154q38 22 75.5 34.5t68.5 19t53.5 8.5t31.5 2q66 0 109.5 -23t69 -57.5t36 -76t10.5 -78.5v-323h-235zM423 774q0 60 -19.5 123.5t-57 123.5t-92.5 114.5t-126 98.5q54 103 135.5 191.5t185.5 154
t228.5 102.5t265.5 37q150 0 284 -45.5t234 -133.5t158.5 -217t58.5 -295v-1327h-537l-238 144l-266 -170l-426 176l100 164l320 -133l272 173l280 -168h260v1137q0 105 -33 194t-97 154t-157 102t-213 37q-157 0 -292 -64.5t-231 -179.5q58 -54 100.5 -117t70 -128.5
t40.5 -129t13 -118.5q0 -227 -99 -382.5t-291 -225.5l-96 186q137 68 201 172.5t64 249.5z" />
    <glyph glyph-name="fongmanfunnuthai" unicode="&#xe4f;&#x22;" horiz-adv-x="2148" 
d="M846 1842l-85 398v176h215v-574h-130zM1171 1842v574h215l-1 -176l-84 -398h-130zM196 849q0 121 31.5 233.5t88.5 210t137 177.5t177.5 137t210 88.5t233.5 31.5t233.5 -31.5t210 -88.5t177.5 -137t137 -177.5t88.5 -210t31.5 -233.5t-31.5 -233.5t-88.5 -210
t-137 -177.5t-177.5 -137t-210 -88.5t-233.5 -31.5t-233.5 31.5t-210 88.5t-177.5 137t-137 177.5t-88.5 210t-31.5 233.5zM621 849q0 94 35.5 176.5t97 144t144 97t176.5 35.5t176.5 -35.5t144 -97t97 -144t35.5 -176.5t-35.5 -176.5t-97 -144t-144 -97t-176.5 -35.5
t-176.5 35.5t-144 97t-97 144t-35.5 176.5zM800 849q0 -57 21.5 -106.5t59 -87t87 -59t106.5 -21.5t106.5 21.5t87 59t59 87t21.5 106.5t-21.5 106.5t-59 87t-87 59t-106.5 21.5t-106.5 -21.5t-87 -59t-59 -87t-21.5 -106.5zM391 848q0 -142 54 -266.5t147 -217.5
t217.5 -147t266.5 -54t266.5 54t217.5 147t147 217.5t54 266.5t-54 266.5t-147 217.5t-217.5 147t-266.5 54t-266.5 -54t-217.5 -147t-147 -217.5t-54 -266.5z" />
    <glyph glyph-name="lessequal" unicode="&#x3c;&#x3d;" horiz-adv-x="1775" 
d="M1562 559l-1308 480v209l1308 500v-234l-1064 -378l1064 -367v-210zM1562 157l-1308 489v205l1308 -489v-205z" />
    <glyph glyph-name="greaterequal" unicode="&#x3e;&#x3d;" horiz-adv-x="1775" 
d="M213 769l1064 367l-1064 378v234l1308 -500v-209l-1308 -480v210zM213 362l1308 489v-205l-1308 -489v205z" />
    <glyph glyph-name="plusminus" unicode="&#x2b;&#x2d;" horiz-adv-x="1783" 
d="M219 64v206h1346v-206h-1346zM785 924h-566v206h566v568h213v-568h565v-206h-565v-569h-213v569z" />
    <glyph glyph-name="dochadasarauuthai" unicode="&#xe0e;&#xe39;" horiz-adv-x="1945" 
d="M799 -459q21 13 50 23t58.5 17t57 10.5t45.5 3.5q57 0 89 -17t47.5 -44.5t18.5 -63t3 -72.5v-34q0 -42 11 -72.5t30 -51t44 -30t54 -9.5q25 0 49.5 9t43.5 28.5t31 50.5t12 76v224h235v-209q0 -77 -22 -140t-68.5 -107.5t-117.5 -69t-170 -24.5t-168 22t-112 62.5t-62 97
t-16 124.5q2 40 -8.5 57t-39.5 17q-8 0 -28 -3.5t-38 -11.5zM1443 1024q0 105 -33 194t-97 154t-157 102t-213 37q-157 0 -292 -64.5t-231 -179.5q58 -54 100.5 -117t70 -128.5t40.5 -129t13 -118.5q0 -227 -99 -382.5t-291 -225.5l-96 186q137 68 201 172.5t64 249.5
q0 60 -19.5 123.5t-57 123.5t-92.5 114.5t-126 98.5q54 103 135.5 191.5t185.5 154t228.5 102.5t265.5 37q150 0 284 -45.5t234 -133.5t158.5 -217t58.5 -295v-1327h-532l-388 189l-423 -213l-100 158l524 261l435 -209h249v1137z" />
    <glyph glyph-name="topataksarauuthai" unicode="&#xe0f;&#xe39;" horiz-adv-x="1945" 
d="M819 -459q21 13 47 23t51.5 17t50 10.5t42.5 3.5q57 0 89 -17t47.5 -44.5t18.5 -63t3 -72.5v-34q0 -42 11 -72.5t30 -51t44 -30t54 -9.5q25 0 49.5 9t43.5 28.5t31 50.5t12 76v224h235v-209q0 -77 -22 -140t-68.5 -107.5t-117.5 -69t-170 -24.5t-168 22t-112 62.5t-62 97
t-16 124.5q2 40 -8.5 57t-39.5 17q-8 0 -28 -3.5t-38 -11.5zM423 774q0 60 -19.5 123.5t-57 123.5t-92.5 114.5t-126 98.5q54 103 135.5 191.5t185.5 154t228.5 102.5t265.5 37q150 0 284 -45.5t234 -133.5t158.5 -217t58.5 -295v-1327h-537l-238 144l-266 -170l-426 176
l100 164l320 -133l272 173l280 -168h260v1137q0 105 -33 194t-97 154t-157 102t-213 37q-157 0 -292 -64.5t-231 -179.5q58 -54 100.5 -117t70 -128.5t40.5 -129t13 -118.5q0 -227 -99 -382.5t-291 -225.5l-96 186q137 68 201 172.5t64 249.5z" />
    <glyph glyph-name=".notdef" horiz-adv-x="1696" 
d="M131 569q0 95 37.5 168t98.5 122t139 74t159 25t157.5 -22t135 -67.5t94 -115.5t35.5 -167v-475h434v827h115v-934h-774v107h119v487q0 61 -24 107.5t-66 77t-99 46t-123 15.5q-61 0 -118.5 -17.5t-102 -50.5t-71.5 -81t-27 -109v-439l237 238q-11 4 -25.5 14.5t-28 27
t-23 39.5t-9.5 54q0 74 45 117t119 43q35 0 64 -13t49.5 -35t31.5 -51t11 -61q0 -29 -6.5 -51t-16.5 -38t-20.5 -27l-18.5 -19l-204 -197l-92 -85.5l-101 -98.5h-131v565zM1536 1618v-582q-98 31 -211.5 58t-238.5 47t-259 31.5t-274 11.5q-99 0 -194 -6t-191 -19
q24 92 78 175.5t135.5 146.5t189.5 100t240 37q127 0 229.5 -28.5t179 -70.5t128 -89.5t77.5 -86.5l-0.5 15.5t-0.5 39.5t-1 54.5t-1 61t-0.5 58t-0.5 46.5h115zM823 1294q43 -3 98 -9t114 -15t118.5 -20.5t112 -25.5t94 -30t65.5 -35q-41 81 -107 144.5t-146.5 107t-171 66
t-181.5 22.5q-69 0 -136 -13t-128.5 -40t-115 -68t-95.5 -96q74 9 147.5 12.5t147.5 3.5q46 0 92 -0.5t92 -3.5zM1753 1692q53 0 77.5 -32.5t24.5 -78.5q0 -17 -6 -33.5t-18.5 -30t-32 -22t-45.5 -8.5q-24 0 -44 8.5t-33.5 22t-21 30t-7.5 33.5q0 46 28.5 78.5t77.5 32.5z
M1753 1499q26 0 43.5 8t28 20.5t14.5 27t4 26.5q0 46 -21.5 72t-68.5 26q-46 0 -70 -26t-24 -72q0 -34 22.5 -58t71.5 -24zM627 520q0 34 -22.5 50t-47.5 16q-28 0 -49 -16t-21 -50t21 -47.5t49 -13.5q12 0 24.5 3t22.5 10.5t16.5 19t6.5 28.5zM1741 1577h-12v-57h-21v139
h45q49 0 49 -41q0 -28 -12.5 -34.5t-28.5 -6.5l41 -57h-20zM1729 1638v-57h24q29 0 29 37q0 3 -6.5 11.5t-22.5 8.5h-24z" />
    <glyph glyph-name=".null" 
 />
    <glyph glyph-name="nonmarkingreturn" horiz-adv-x="1159" 
 />
    <glyph glyph-name="space" unicode=" " horiz-adv-x="1022" 
 />
    <glyph glyph-name="yoyingnobasethai" unicode="&#xf70f;" horiz-adv-x="2746" 
d="M1920 -18q-63 0 -129 14t-128 44t-117 76t-95.5 110t-64.5 147t-24 186v489q-2 130 -37 218.5t-93 143t-133 78t-155 23.5q-98 0 -175 -17.5t-136.5 -46.5t-103 -66t-75.5 -76l240 -264q-46 -44 -89.5 -97t-77.5 -117.5t-54 -143t-19 -172.5q0 -54 15.5 -112t44 -106
t70.5 -79t95 -31q30 0 56.5 7.5t48.5 18.5l104 -163q-34 -26 -90 -43.5t-127 -17.5q-72 0 -132 21.5t-109 58.5t-86 87.5t-62 108.5t-38 121.5t-14 127.5q-1 93 13 167.5t41 139.5t65.5 123t87.5 118l-237 252q18 26 49.5 66.5t77 86t106 91t137.5 82.5t170 60t204 23
q82 0 162.5 -18t153 -54t134.5 -91t107 -129.5t70.5 -169t25.5 -209.5v-485q0 -108 29 -180t75.5 -114.5t104.5 -60t116 -17.5t115 17.5t103 60t74.5 114.5t28.5 180l1 1137h236v-1141q0 -103 -24 -186t-65 -147t-96 -110t-117.5 -76t-128.5 -44t-129 -14z" />
    <glyph glyph-name="quoteleft" unicode="&#x2018;" horiz-adv-x="773" 
d="M228 1752q0 90 17.5 157t55 116.5t96.5 83t142 55.5l36 -103q-56 -20 -93 -46t-59 -58.5t-29.5 -72t-4.5 -87.5h132v-315h-293v270z" />
    <glyph glyph-name="quoteright" unicode="&#x2019;" horiz-adv-x="773" 
d="M545 1894q0 -90 -17.5 -157t-55 -116.5t-96.5 -83t-142 -55.5l-36 103q55 20 92.5 46t59.5 58.5t29.5 72t4.5 87.5h-132v315h293v-270z" />
    <glyph glyph-name="quotedblleft" unicode="&#x201c;" horiz-adv-x="1333" 
d="M228 1752q0 90 17.5 157t55 116.5t96.5 83t142 55.5l36 -103q-56 -20 -93 -46t-59 -58.5t-29.5 -72t-4.5 -87.5h132v-315h-293v270zM788 1752q0 90 17.5 157t55 116.5t96.5 83t142 55.5l36 -103q-56 -20 -93 -46t-59 -58.5t-29.5 -72t-4.5 -87.5h132v-315h-293v270z" />
    <glyph glyph-name="quotedblright" unicode="&#x201d;" horiz-adv-x="1334" 
d="M1105 1894q0 -90 -17.5 -157t-55 -116.5t-96.5 -83t-142 -55.5l-36 103q55 20 92.5 46t59.5 58.5t29.5 72t4.5 87.5h-132v315h293v-270zM545 1894q0 -90 -17.5 -157t-55 -116.5t-96.5 -83t-142 -55.5l-36 103q55 20 92.5 46t59.5 58.5t29.5 72t4.5 87.5h-132v315h293
v-270z" />
    <glyph glyph-name="bullet" unicode="&#x2022;" horiz-adv-x="1386" 
d="M695 685q-73 0 -136.5 28.5t-111 78.5t-74.5 118.5t-27 148.5q0 81 27.5 149.5t75 118t111 77.5t135.5 28q69 0 132 -28t110 -77.5t75 -118.5t28 -150q0 -80 -27 -148t-74 -118t-110 -78.5t-134 -28.5z" />
    <glyph glyph-name="endash" unicode="&#x2013;" horiz-adv-x="1719" 
d="M180 1131h1360v-210h-1360v210z" />
    <glyph glyph-name="emdash" unicode="&#x2014;" horiz-adv-x="2711" 
d="M180 1131h2351v-210h-2351v210z" />
    <glyph glyph-name="uni00A0" unicode="&#xa0;" horiz-adv-x="1024" 
 />
    <glyph glyph-name="kokaithai" unicode="&#xe01;" horiz-adv-x="1974" 
d="M989 1719q95 0 185 -20.5t170 -60t147 -98.5t115 -135.5t75 -171t27 -205.5v-1028h-235v1024q0 105 -28 194t-87 154t-150.5 101.5t-218.5 36.5q-119 0 -210.5 -36.5t-153 -101.5t-93 -154t-31.5 -194v-1024h-235v1028q0 166 59.5 295t159.5 217t230.5 133.5t273.5 45.5z
" />
    <glyph glyph-name="khokhaithai" unicode="&#xe02;" horiz-adv-x="1482" 
d="M1163 1700h249l-563 -1700h-217l-564 1700h249l423 -1355z" />
    <glyph glyph-name="khokhuatthai" unicode="&#xe03;" horiz-adv-x="1787" 
d="M1521 617q0 -132 -50 -248t-136.5 -202.5t-202.5 -136.5t-248 -50t-248 50t-202.5 136.5t-136.5 202.5t-50 248q0 106 26 190t66 152t88.5 123l93.5 102q3 65 -19 127.5t-66 110t-109.5 72.5t-150.5 14v190q96 12 181.5 -9t152.5 -69t110.5 -120t54.5 -163q37 42 60 84.5
t36.5 87t18.5 91.5t5 100h228q0 -78 -17 -151t-47.5 -139.5t-73.5 -127t-95 -113.5l-113.5 -114.5t-99.5 -119t-71 -140.5t-28 -179q0 -84 29 -159.5t82 -132t127.5 -90t166.5 -33.5q91 0 166 33.5t128 90t82 132t29 159.5l-2 1084h235v-1083z" />
    <glyph glyph-name="khokhwaithai" unicode="&#xe04;" horiz-adv-x="1994" 
d="M1000 1720q95 0 186 -20.5t172 -60t148.5 -98.5t117 -135.5t77 -171t27.5 -205.5v-1029h-235v1025q0 105 -29.5 193.5t-90.5 153.5t-154 101.5t-220 36.5q-119 0 -212 -36.5t-156.5 -101.5t-96.5 -153.5t-33 -193.5v-39h487v-202h-487v-784h-235v1029q0 111 28 205.5
t78 171t118.5 135.5t150 98.5t173 60t186.5 20.5z" />
    <glyph glyph-name="khokhonthai" unicode="&#xe05;" horiz-adv-x="2007" 
d="M1002 1095l-501 318v-517h487v-202h-487v-694h-235v1700h167l569 -363l574 363h165v-1700h-235v1412z" />
    <glyph glyph-name="khorakhangthai" unicode="&#xe06;" horiz-adv-x="1978" 
d="M292 771q0 67 16.5 125t43.5 108t62 93.5t71 82.5q-18 73 -44 133.5t-66 103.5t-96.5 67t-134.5 24v197q74 0 147 -17.5t137.5 -60.5t115.5 -115.5t80 -181.5q33 37 54 72t32.5 76.5t16 94.5t4.5 127h228q2 -85 -9 -153t-31 -123.5t-47 -100.5t-57 -81.5t-60 -68
l-56 -59.5l-60 -65.5t-55 -73.5t-40.5 -89.5t-15.5 -114.5v-145q0 -35 19.5 -81t55 -94.5t84.5 -95.5t107.5 -84t125 -60t136.5 -23q78 0 153 19.5t134.5 67t96 127.5t36.5 202v1096h236v-1100q0 -151 -50 -267t-133 -194.5t-191 -119t-224 -40.5q-101 0 -186 23
t-156.5 62.5t-131.5 93t-112 114.5l-1 -272h-235v771v0z" />
    <glyph glyph-name="ngonguthai" unicode="&#xe07;" horiz-adv-x="1340" 
d="M546 -21q-120 0 -209.5 38.5t-153 97.5t-105 130t-65.5 137l190 129q20 -62 51 -120.5t73 -103.5t95.5 -72t119.5 -27q67 0 122 27.5t93.5 82.5t59.5 138t21 194v1070h236v-1074q0 -145 -32 -264.5t-97 -204.5t-164.5 -131.5t-234.5 -46.5z" />
    <glyph glyph-name="chochanthai" unicode="&#xe08;" horiz-adv-x="1486" 
d="M699 1518q-69 0 -137.5 -15.5t-129.5 -50t-111 -88.5t-81 -132l-205 94q27 81 88 153t148 125t196 84t232 31q144 0 266.5 -38t212 -111.5t140 -182t50.5 -249.5q0 -75 -29 -179.5t-79 -221.5q-12 -29 -39.5 -86l-63 -128.5l-75 -150.5l-75.5 -151.5l-64.5 -131
t-42.5 -89.5h-219l-477 924h246l335 -675q7 18 26.5 60l45.5 96.5l55 116l55.5 118.5l47.5 103.5t31 70.5l31.5 85t27.5 85t19.5 80.5t7.5 70.5q0 96 -35.5 167.5t-95 119.5t-138 72t-164.5 24z" />
    <glyph glyph-name="chochingthai" unicode="&#xe09;" horiz-adv-x="1948" 
d="M917 1719q162 0 302 -50t242.5 -146.5t161.5 -237t59 -321.5v-964h-235v267q-64 -77 -129.5 -132t-138 -89.5t-153.5 -50.5t-176 -16q-122 0 -230 42t-189 124t-128 201t-47 274v376h236v-372q0 -125 30.5 -208.5t85.5 -134t131.5 -72t168.5 -21.5q109 0 207 38t172 104
t117 156t43 195v283q0 135 -43.5 237t-117 170.5t-169.5 103.5t-200 35q-80 0 -159 -15.5t-154 -48.5t-144 -84t-128 -123l-160 148q70 90 159 153t187.5 103t200.5 58t198 18z" />
    <glyph glyph-name="sosothai" unicode="&#xe0b;" horiz-adv-x="1659" 
d="M1521 617q0 -132 -50 -248t-136.5 -202.5t-202.5 -136.5t-248 -50t-248 50t-202.5 136.5t-136.5 202.5t-50 248q0 106 19.5 190t52 152t75 123t87.5 102q3 65 -19 127.5t-66 110t-109.5 72.5t-150.5 14v190q96 12 181.5 -9t152.5 -69t110.5 -120t54.5 -163q37 42 60 84.5
t36.5 87t18.5 91.5t5 100h228q0 -78 -17 -151t-47.5 -139.5t-73.5 -127t-95 -113.5q-58 -59 -107.5 -114.5t-85.5 -119t-57 -140.5t-22 -179q0 -84 29 -159.5t82 -132t127.5 -90t166.5 -33.5q91 0 166 33.5t128 90t82 132t29 159.5q0 76 -24 145t-68.5 124t-107.5 92.5
t-140 52.5q-32 6 -59.5 10t-44.5 4v143l463 513h291l-486 -525q104 -30 181 -83t127.5 -124.5t75.5 -160t25 -190.5z" />
    <glyph glyph-name="chochoethai" unicode="&#xe0c;" horiz-adv-x="2832" 
d="M1422 1048q-2 130 -40.5 218.5t-101 143t-142.5 78t-164 23.5q-102 0 -180.5 -16t-140 -44.5t-109 -66.5t-88.5 -81l240 -257q-46 -44 -90 -98t-78 -119.5t-54.5 -144.5t-19.5 -173q0 -54 15.5 -112t44 -106t70.5 -79t95 -31q30 0 56.5 7.5t48.5 18.5l104 -163
q-34 -26 -90 -43.5t-127 -17.5q-72 0 -132 21.5t-109 58.5t-86 87.5t-62 108.5t-38 121.5t-14 127.5q-1 93 13 167.5t41 139.5t65.5 123t87.5 118l-234 248q22 32 56.5 75.5t82 89.5t109.5 90.5t140 79.5t173.5 56.5t209.5 21.5q85 0 168.5 -18t159.5 -54t140.5 -91
t112.5 -129.5t75 -169t27 -209.5v-400q0 -45 15.5 -96t42.5 -102t64 -98t80.5 -83t92 -57.5t98.5 -21.5q71 0 124 20.5t87.5 67t51.5 121.5t17 183v1118h236v-1122q0 -143 -28.5 -254.5t-86 -187.5t-143.5 -115.5t-200 -39.5q-89 0 -163 28t-131.5 69t-97.5 88.5t-59 85.5
v-252h-235v1048z" />
    <glyph glyph-name="dochadathai" unicode="&#xe0e;" horiz-adv-x="1958" 
d="M128 1238q60 110 144 199t189.5 152t230 97t265.5 34q150 0 284 -45.5t234 -133.5t158.5 -217t58.5 -295v-1528h-532l-388 189l-423 -213l-100 158l524 261l435 -209h249v1338q0 105 -33.5 194t-97.5 154t-157 102t-212 37q-173 0 -305.5 -60.5t-229.5 -190.5
q63 -53 109 -127.5t76.5 -153.5t45.5 -154.5t15 -132.5q0 -118 -26 -230.5t-76.5 -208.5t-125 -171t-172.5 -117l-116 188q78 36 133 94.5t89.5 130t50.5 151t16 158.5q0 69 -18.5 144t-56.5 147.5t-97.5 139t-140.5 119.5z" />
    <glyph glyph-name="topatakthai" unicode="&#xe0f;" horiz-adv-x="1958" 
d="M128 1238q60 110 144 199t189.5 152t230 97t265.5 34q150 0 284 -45.5t234 -133.5t158.5 -217t58.5 -295v-1528h-547l-238 144l-266 -170l-426 176l100 164l320 -133l272 173l280 -168h270v1338q0 105 -33.5 194t-97.5 154t-157 102t-212 37q-173 0 -305.5 -60.5
t-229.5 -190.5q63 -53 109 -127.5t76.5 -153.5t45.5 -154.5t15 -132.5q0 -118 -26 -230.5t-76.5 -208.5t-125 -171t-172.5 -117l-116 188q78 36 133 94.5t89.5 130t50.5 151t16 158.5q0 69 -18.5 144t-56.5 147.5t-97.5 139t-140.5 119.5z" />
    <glyph glyph-name="thothanthai" unicode="&#xe10;" horiz-adv-x="1536" 
d="M689 1518q-69 0 -134.5 -14t-122.5 -46.5t-104 -85t-78 -130.5l-205 94q27 81 84.5 151t141 121.5t189.5 81t229 29.5h742v-185h-268q39 -30 69.5 -72.5t51.5 -93.5t32.5 -109.5t11.5 -120.5q0 -75 -33 -191.5t-93 -265.5l-37.5 -86.5l-52.5 -117.5l-60.5 -133
l-60.5 -133.5l-53 -120l-38 -90.5h-219l-477 924h246l335 -669l26 62l36 84l41.5 96.5l42 99.5l38.5 92.5t30 76.5q14 37 30.5 87.5t30.5 102.5t23 99.5t9 79.5q0 96 -31 167.5t-85 119.5t-127.5 72t-159.5 24zM897 -164q0 -31 12 -59.5t33.5 -50.5t52 -35t67.5 -13t67 13
t51.5 35t33.5 50.5t12 59.5h209q0 -71 -29.5 -134t-80.5 -109.5t-119 -73.5t-144 -27q-39 0 -79.5 9t-76.5 25.5t-66 40.5t-48 53q-21 -29 -51 -52.5t-66 -40.5t-75 -26t-78 -9q-76 0 -143.5 27t-118.5 73.5t-80.5 109.5t-29.5 134h208q0 -31 12 -59.5t33.5 -50.5t51.5 -35
t67 -13t67.5 13t52 35t33.5 50.5t12 59.5h210z" />
    <glyph glyph-name="thonangmonthothai" unicode="&#xe11;" horiz-adv-x="2050" 
d="M378 771q0 65 9 121.5t25.5 105t39.5 91t50 80.5q-17 75 -46.5 137.5t-72.5 107.5t-98.5 69.5t-123.5 24.5l42 197q62 0 128 -21t125.5 -67.5t106.5 -120.5t71 -179q32 37 55 72t38 78t22.5 99t7.5 134h228q2 -85 -9 -150.5t-31.5 -118t-48 -93.5t-57 -76.5t-59.5 -67
t-56 -64.5q-27 -35 -47.5 -71t-35 -78.5t-21.5 -93.5t-7 -116v-425l945 1354h226v-1700h-235v1340l-936 -1340h-235v771z" />
    <glyph glyph-name="thophuthaothai" unicode="&#xe12;" horiz-adv-x="2889" 
d="M1698 0h-235v1446l-296 -264q-25 51 -57.5 109t-76 107t-101 81.5t-133.5 32.5q-95 0 -178.5 -49.5t-145.5 -137.5t-98 -209.5t-36 -265.5q0 -81 13 -162t40 -155.5t67.5 -138.5t96 -111t126 -74t156.5 -27q32 0 70 6t75.5 18.5t71.5 32t58 46.5l95 -165
q-33 -37 -77.5 -63.5t-93.5 -43.5t-100 -25t-97 -8q-109 0 -206 30.5t-179 86.5t-147 135t-110.5 175.5t-69.5 208.5t-24 234q0 120 22.5 231.5t65.5 208t104 176t138 136t168.5 87.5t194.5 31q130 0 234.5 -60.5t181.5 -190.5l264 231h219v-1061q0 -45 16 -95.5
t43.5 -100.5t66 -96t83.5 -81.5t95 -56.5t102 -21q71 0 124 21t88.5 67.5t53 122t17.5 183.5v1118h236v-1122q0 -143 -29 -254.5t-87 -188t-144.5 -116.5t-200.5 -40q-89 0 -165.5 26.5t-136.5 66.5t-101.5 86t-60.5 84v-242z" />
    <glyph glyph-name="nonenthai" unicode="&#xe13;" horiz-adv-x="2791" 
d="M974 1720q82 0 161 -16t150 -50t131 -86t103.5 -123t68.5 -162.5t25 -203.5v-497q0 -108 17.5 -183.5t52.5 -122t88 -67.5t124 -21q52 0 101 23.5t93 62t81 88.5t63.5 103.5t41.5 106t15 97.5v1031h235v-1700h-236v254q-19 -38 -59 -86t-97.5 -90t-132 -70.5
t-163.5 -28.5q-109 0 -194 40t-144 116.5t-90 188t-31 254.5v501q-2 130 -34.5 213.5t-87.5 132t-126.5 67t-150.5 18.5q-102 0 -181 -16t-141.5 -43.5t-111 -65.5t-89.5 -81l245 -263q-46 -44 -90.5 -97t-79.5 -117.5t-56.5 -143t-20.5 -172.5q0 -54 15.5 -112t44 -106
t70.5 -79t95 -31q30 0 56.5 7.5t48.5 18.5l104 -163q-34 -26 -90 -43.5t-127 -17.5q-72 0 -132 21.5t-109 58.5t-86 87.5t-62 108.5t-38 121.5t-14 127.5q-1 93 13 168t41 139.5t65.5 123t87.5 118.5l-237 245q23 32 57 75.5t82 90t110.5 91.5t141 80t174 57t209.5 22z" />
    <glyph glyph-name="dodekthai" unicode="&#xe14;" horiz-adv-x="1955" 
d="M1224 121q-36 -36 -81 -62.5t-93 -44t-94.5 -26t-85.5 -8.5q-113 0 -213.5 31t-185 87t-152.5 134.5t-115 174t-72.5 205.5t-25.5 228q0 130 28 245.5t81 213t128 175t169 132t205 83.5t236 29q151 0 285 -43t234 -126.5t158.5 -206.5t58.5 -283v-1059h-235v1055
q0 105 -33 189t-97 143t-157.5 91t-214.5 32q-132 0 -244 -46.5t-193.5 -133t-127.5 -210.5t-46 -280q0 -78 16.5 -157t48.5 -152t78.5 -137t105.5 -111t130.5 -74t154.5 -27q32 0 69 8.5t71.5 23t64.5 35t49 44.5z" />
    <glyph glyph-name="totaothai" unicode="&#xe15;" horiz-adv-x="1964" 
d="M1167 1182q-25 51 -57.5 109t-76 107t-101 81.5t-133.5 32.5q-95 0 -178.5 -49.5t-145.5 -137.5t-98 -209.5t-36 -265.5q0 -81 13 -162t40 -155.5t67.5 -138.5t96 -111t126 -74t156.5 -27q32 0 70 6t75.5 18.5t71.5 32t58 46.5l95 -165q-33 -37 -77.5 -63.5t-93.5 -43.5
t-100 -25t-97 -8q-109 0 -206 30.5t-179 86.5t-147 135t-110.5 175.5t-69.5 208.5t-24 234q0 120 22.5 231.5t65.5 208t104 176t138 136t168.5 87.5t194.5 31q130 0 234.5 -60.5t181.5 -190.5l264 231h219v-1700h-235v1446z" />
    <glyph glyph-name="thothungthai" unicode="&#xe16;" horiz-adv-x="1923" 
d="M230 510q-1 93 13 168t41 139.5t65.5 123t87.5 118.5l-239 248q20 31 53.5 73.5t81.5 88.5t111.5 91t143 80.5t176 57.5t210.5 22q85 0 168.5 -18t159.5 -54t140.5 -91t112.5 -129.5t75 -169t27 -209.5v-1049h-235v1049q-2 130 -40.5 218.5t-101 142.5t-142.5 77.5
t-164 23.5q-102 0 -180.5 -16t-140 -44t-109 -66t-88.5 -81l243 -263q-46 -44 -90.5 -97t-79 -117.5t-55.5 -143t-20 -172.5q0 -54 15.5 -112t44 -106t70.5 -79t95 -31q30 0 56.5 7.5t48.5 18.5l104 -163q-34 -26 -90 -43.5t-127 -17.5q-72 0 -132 21.5t-109 58.5t-86 87.5
t-62 108.5t-38 121.5t-14 127.5z" />
    <glyph glyph-name="thothahanthai" unicode="&#xe17;" horiz-adv-x="1976" 
d="M1094 1721q81 0 158 -18t145.5 -53.5t126 -89t99 -123.5t64.5 -156.5t23 -189.5v-1091h-236v1087q0 110 -32 190t-87 132.5t-128.5 77.5t-156.5 25q-68 0 -136 -23.5t-131.5 -64.5t-118.5 -96.5t-95.5 -119.5t-64 -134t-23.5 -139v-935h-235v1700h235v-323q45 73 104 136
t132.5 109t162.5 72.5t194 26.5z" />
    <glyph glyph-name="thothongthai" unicode="&#xe18;" horiz-adv-x="1666" 
d="M521 433q0 -50 28 -94.5t79 -78t121.5 -53t154.5 -19.5q80 0 148 19.5t117.5 55t77 86t27.5 112.5q0 61 -23 113.5t-72.5 97.5t-126 82t-183.5 66l-155.5 44t-151.5 51t-136 62t-110 78.5t-74 101t-27 127.5t26.5 131.5t72.5 109t109 85t136 61t152.5 37t159.5 12.5
q87 0 175 -17.5t168.5 -46.5t150.5 -67t122 -80l-124 -175q-52 45 -111 78t-122 55.5t-129 33.5t-130 11q-74 0 -147.5 -10t-132.5 -34t-96 -63.5t-37 -97.5q0 -42 23 -76t62.5 -62t92 -50.5t111.5 -41.5t121.5 -36l121.5 -34q140 -40 240 -90t164.5 -114t94.5 -144t30 -180
q0 -77 -24.5 -144t-67.5 -122.5t-102 -99t-128 -73.5t-145 -45.5t-154 -15.5q-118 0 -228.5 32t-196 90.5t-137 142t-51.5 187.5v362h236v-360v0z" />
    <glyph glyph-name="nonuthai" unicode="&#xe19;" horiz-adv-x="1976" 
d="M882 -21q-122 0 -233 40.5t-196.5 120t-136 197t-50.5 272.5v1091h236v-1087q0 -110 32 -190t87 -132.5t128.5 -77.5t156.5 -25q67 0 135.5 23.5t132 64.5t118.5 96.5t95.5 119.5t64 133.5t23.5 139.5v935h235v-1700h-235v323q-45 -73 -104 -136t-132.5 -109
t-162.5 -72.5t-194 -26.5z" />
    <glyph glyph-name="bobaimaithai" unicode="&#xe1a;" horiz-adv-x="1974" 
d="M987 -21q-143 0 -273 45.5t-230 133.5t-159 216.5t-59 295.5v1030h235v-1026q0 -105 31 -194t92 -154t152 -101.5t210 -36.5q127 0 219 36.5t151.5 101.5t88 154t28.5 194v1026h235v-1030q0 -111 -27 -205.5t-75.5 -171t-115.5 -135.5t-147 -98.5t-170.5 -60
t-185.5 -20.5z" />
    <glyph glyph-name="poplathai" unicode="&#xe1b;" horiz-adv-x="1974" 
d="M987 -21q-143 0 -273 45.5t-230 133.5t-159 216.5t-59 295.5v1030h235v-1026q0 -105 31 -194t92 -154t152 -101.5t210 -36.5q127 0 219 36.5t151.5 101.5t88 154t28.5 194v1755h235v-1759q0 -111 -27 -205.5t-75.5 -171t-115.5 -135.5t-147 -98.5t-170.5 -60
t-185.5 -20.5z" />
    <glyph glyph-name="phophungthai" unicode="&#xe1c;" horiz-adv-x="1997" 
d="M742 1499l-30 7t-35 7t-36 4.5t-34 0.5q-73 -3 -120.5 -27t-72.5 -67.5t-29 -105.5t11 -141l154 -829l470 937l477 -916l165 1331h237l-231 -1700h-203l-445 861l-433 -862h-203l-217 1178q-10 51 -12.5 110t8.5 118t38 113.5t78 97t127.5 68t186.5 27.5q18 0 42.5 -1
t51 -4t53 -9t48.5 -15z" />
    <glyph glyph-name="fofathai" unicode="&#xe1d;" horiz-adv-x="1971" 
d="M742 1499l-30 7t-35 7t-36 4.5t-34 0.5q-73 -3 -120.5 -27t-72.5 -67.5t-29 -105.5t11 -141l154 -829l470 937l473 -902l133 2050h224l-182 -2433h-203l-445 861l-433 -862h-203l-217 1178q-10 51 -12.5 110t8.5 118t38 113.5t78 97t127.5 68t186.5 27.5q18 0 42.5 -1
t51 -4t53 -9t48.5 -15z" />
    <glyph glyph-name="phophanthai" unicode="&#xe1e;" horiz-adv-x="2310" 
d="M680 0h-203l-291 1700h237l204 -1270l452 1270h152l452 -1270l204 1270h237l-291 -1700h-203l-475 1338z" />
    <glyph glyph-name="fofanthai" unicode="&#xe1f;" horiz-adv-x="2242" 
d="M680 0h-203l-291 1700h237l204 -1270l452 1270h152l452 -1270l221 1995h229l-300 -2425h-203l-475 1338z" />
    <glyph glyph-name="phosamphaothai" unicode="&#xe20;" horiz-adv-x="1958" 
d="M1692 0h-235v1025q0 105 -33.5 194t-97.5 154t-157 102t-212 37q-173 0 -305.5 -60.5t-229.5 -190.5q63 -53 109 -127.5t76.5 -153.5t45.5 -154.5t15 -132.5q0 -118 -26 -230.5t-76.5 -208.5t-125 -171t-172.5 -117l-116 188q78 36 133 94.5t89.5 130t50.5 151t16 158.5
q0 69 -18.5 144t-56.5 147.5t-97.5 139t-140.5 119.5q60 110 144 199t189.5 152t230 97t265.5 34q150 0 284 -45.5t234 -133.5t158.5 -217t58.5 -295v-1029z" />
    <glyph glyph-name="momathai" unicode="&#xe21;" horiz-adv-x="1976" 
d="M1094 -21q-105 0 -194 26.5t-162.5 72.5t-132.5 109t-104 136v-323h-235v1700h235v-935q0 -69 23.5 -139t64 -134t95.5 -119.5t118.5 -96t131.5 -64t136 -23.5q83 0 156.5 25.5t128.5 78t87 132.5t32 188v1087h236v-1091q0 -103 -23 -189.5t-64.5 -156.5t-99 -123.5
t-126 -89t-145.5 -53.5t-158 -18z" />
    <glyph glyph-name="yoyakthai" unicode="&#xe22;" horiz-adv-x="1957" 
d="M526 1700q-23 -42 -39 -93.5t-16 -105.5q0 -96 27.5 -163t84.5 -108.5t143.5 -60.5t203.5 -19h150v-197h-38t-42 0.5t-39 0.5h-29q-115 0 -205 -18t-152 -57.5t-94.5 -103.5t-32.5 -157q0 -75 30 -151.5t90.5 -138.5t153 -101t217.5 -39q111 0 205.5 28t164 86t108.5 147
t39 210v1041h235v-1043q0 -114 -28.5 -209t-80 -170t-121.5 -131.5t-153.5 -93.5t-177 -55.5t-190.5 -18.5q-95 0 -186 21t-171.5 60.5t-148.5 96t-117 127.5t-76.5 155t-27.5 179q0 94 25 165t67 123t96 88.5t112 62.5q-59 30 -109.5 68t-88 90t-58.5 122t-21 164
q0 29 5 58.5t13 56t18 48.5t20 36h234z" />
    <glyph glyph-name="roruathai" unicode="&#xe23;" horiz-adv-x="1479" 
d="M730 -21q-75 0 -157 12.5t-166 42.5t-167.5 79t-160.5 122l132 164q64 -59 130.5 -99.5t133.5 -65t133 -35.5t128 -11q70 0 133.5 17.5t111.5 51.5t76.5 83t28.5 111q0 61 -19 104.5t-64 78.5t-120.5 65t-187.5 65q-107 33 -205 77.5t-172.5 104.5t-118.5 138.5
t-44 179.5q0 107 46 192t124.5 143.5t182 89.5t219.5 31q73 0 152 -13.5t155.5 -39.5t147 -63.5t125.5 -84.5l-124 -175q-50 36 -107.5 66.5t-116.5 52.5t-118.5 34.5t-113.5 12.5q-75 0 -136 -14.5t-104 -43t-66 -70t-23 -95.5q0 -55 24.5 -100.5t74.5 -84.5t126.5 -72.5
t181.5 -63.5q125 -36 222.5 -81t164.5 -104t102 -135.5t35 -176.5q0 -77 -23 -143t-63.5 -120.5t-96.5 -97t-122.5 -71t-141 -43.5t-152.5 -15z" />
    <glyph glyph-name="ruthai" unicode="&#xe24;" horiz-adv-x="1923" 
d="M230 510q-1 93 13 168t41 139.5t65.5 123t87.5 118.5l-239 248q20 31 53.5 73.5t81.5 88.5t111.5 91t143 80.5t176 57.5t210.5 22q85 0 168.5 -18t159.5 -54t140.5 -91t112.5 -129.5t75 -169t27 -209.5v-1548h-235v1548q-2 130 -40.5 218.5t-101 142.5t-142.5 77.5
t-164 23.5q-102 0 -180.5 -16t-140 -44t-109 -66t-88.5 -81l243 -263q-46 -44 -90.5 -97t-79 -117.5t-55.5 -143t-20 -172.5q0 -54 15.5 -112t44 -106t70.5 -79t95 -31q30 0 56.5 7.5t48.5 18.5l104 -163q-34 -26 -90 -43.5t-127 -17.5q-72 0 -132 21.5t-109 58.5t-86 87.5
t-62 108.5t-38 121.5t-14 127.5z" />
    <glyph glyph-name="lolingthai" unicode="&#xe25;" horiz-adv-x="1868" 
d="M751 188q21 0 46.5 2.5t52 7.5t52 11.5t47.5 15.5l79 -180q-33 -16 -73 -28.5t-83 -20.5t-86.5 -12.5t-85.5 -4.5q-108 0 -208.5 33.5t-178.5 100.5t-125 166.5t-47 230.5q0 90 26 167t72.5 139t111.5 110t143 80t166 48.5t181 16.5q70 0 144 -6.5t143.5 -17t131 -24.5
t107.5 -28v99q0 124 -40 204.5t-110.5 128t-166 66.5t-206.5 19q-70 0 -141.5 -10.5t-139.5 -29.5t-130 -45.5t-112 -58.5l-92 191q64 38 142.5 68t163 50.5t170.5 31.5t165 11q157 0 291.5 -34.5t232 -109.5t153 -193.5t55.5 -287.5v-1095h-235v813q-36 13 -91 27
t-121.5 24.5t-139.5 17.5t-145 7q-104 0 -194 -26t-156.5 -74t-104.5 -116.5t-38 -153.5q0 -83 30 -145.5t81 -103.5t119 -61.5t144 -20.5z" />
    <glyph glyph-name="luthai" unicode="&#xe26;" horiz-adv-x="1958" 
d="M128 1238q60 110 144 199t189.5 152t230 97t265.5 34q150 0 284 -45.5t234 -133.5t158.5 -217t58.5 -295v-1530h-235v1526q0 105 -33.5 194t-97.5 154t-157 102t-212 37q-173 0 -305.5 -60.5t-229.5 -190.5q63 -53 109 -127.5t76.5 -153.5t45.5 -154.5t15 -132.5
q0 -118 -26 -230.5t-76.5 -208.5t-125 -171t-172.5 -117l-116 188q78 36 133 94.5t89.5 130t50.5 151t16 158.5q0 69 -18.5 144t-56.5 147.5t-97.5 139t-140.5 119.5z" />
    <glyph glyph-name="wowaenthai" unicode="&#xe27;" horiz-adv-x="1687" 
d="M766 -21q-191 0 -359.5 69t-296.5 205l154 155q108 -112 236 -166t267 -54q72 0 143.5 17.5t135.5 53.5t119 90.5t95 129t62.5 168.5t22.5 210q0 158 -47.5 280t-127.5 205.5t-184.5 126.5t-219.5 43q-76 0 -143 -15.5t-127.5 -45t-116 -72.5t-108.5 -98l-166 150
q61 63 130.5 116t149.5 91.5t173 60t201 21.5q178 0 329 -63t260.5 -177t171 -274t61.5 -355q0 -141 -30.5 -260.5t-85 -216.5t-130.5 -171t-166.5 -123.5t-193 -75t-209.5 -25.5z" />
    <glyph glyph-name="sosalathai" unicode="&#xe28;" horiz-adv-x="1987" 
d="M1872 1861l-309 -377q77 -85 121 -199t44 -256v-1029h-235v1025q0 105 -29.5 193.5t-90.5 153.5t-154 101.5t-220 36.5q-119 0 -212 -36.5t-156.5 -101.5t-96.5 -153.5t-33 -193.5v-39h487v-202h-487v-784h-235v1029q0 111 28 205.5t78 171t118.5 135.5t150 98.5t173 60
t186.5 20.5q103 0 200 -23.5t183 -70.5l193 235h296z" />
    <glyph glyph-name="sorusithai" unicode="&#xe29;" horiz-adv-x="1973" 
d="M999 1094h494v606h235v-606h202v-202h-202v-222q0 -111 -27.5 -205.5t-77 -171t-117 -135.5t-148.5 -98.5t-172 -60t-186 -20.5t-186.5 20.5t-173 60t-150 98.5t-118.5 135.5t-78 171t-28 205.5v1030h235v-1026q0 -105 33 -194t96.5 -154t156.5 -101.5t212 -36.5
q127 0 220 36.5t154 101.5t90.5 154t29.5 194v218h-494v202z" />
    <glyph glyph-name="sosuathai" unicode="&#xe2a;" horiz-adv-x="1868" 
d="M751 188q21 0 46.5 2.5t52 7.5t52 11.5t47.5 15.5l79 -180q-33 -16 -73 -28.5t-83 -20.5t-86.5 -12.5t-85.5 -4.5q-108 0 -208.5 33.5t-178.5 100.5t-125 166.5t-47 230.5q0 90 26 167t72.5 139t111.5 110t143 80t166 48.5t181 16.5q70 0 144 -6.5t143.5 -17t131 -24.5
t107.5 -28v99q0 124 -40 204.5t-110.5 128t-166 66.5t-206.5 19q-70 0 -141.5 -10.5t-139.5 -29.5t-130 -45.5t-112 -58.5l-92 191q64 38 142.5 68t163 50.5t170.5 31.5t165 11q113 0 213.5 -17t185.5 -55l175 213h296l-282 -344q69 -75 106.5 -179t37.5 -243v-1095h-235
v813q-36 13 -91 27t-121.5 24.5t-139.5 17.5t-145 7q-104 0 -194 -26t-156.5 -74t-104.5 -116.5t-38 -153.5q0 -83 30 -145.5t81 -103.5t119 -61.5t144 -20.5z" />
    <glyph glyph-name="hohipthai" unicode="&#xe2b;" horiz-adv-x="1976" 
d="M266 0v1700h235v-894l986 894h314l-422 -378q81 -32 142.5 -78t103.5 -111t63 -150t21 -194v-788h-235v783q0 85 -17 147.5t-51.5 107t-87.5 72.5t-124 45l-693 -620v-536h-235z" />
    <glyph glyph-name="lochulathai" unicode="&#xe2c;" horiz-adv-x="2112" 
d="M1746 1516q47 -24 82.5 -65.5t57 -93.5t27.5 -112.5t-5 -121.5l-207 -1124h-203l-433 862l-445 -861h-203l-231 1700h237l165 -1331l477 916l470 -937l144 775q14 77 -3 147t-62.5 123.5t-117.5 85.5t-166 32l1 190h708v-185h-293z" />
    <glyph glyph-name="oangthai" unicode="&#xe2d;" horiz-adv-x="1833" 
d="M1493 841q0 174 -50.5 301.5t-137 211t-201.5 123.5t-245 40q-70 0 -143.5 -17t-143.5 -50.5t-133.5 -82.5t-112.5 -112l-153 139q62 83 142.5 144.5t171.5 102t188 60t193 19.5q183 0 340.5 -59t273.5 -171.5t182.5 -276t66.5 -372.5q0 -136 -31.5 -253t-88 -213
t-134.5 -170t-170 -124.5t-195.5 -76.5t-211.5 -26q-173 0 -316 59.5t-245 168t-158.5 261.5t-56.5 340v24.5t0.5 35.5l1 37.5t2.5 32.5h786v-196h-552q6 -122 46.5 -224t110.5 -176.5t166.5 -116t215.5 -41.5q90 0 169 24.5t144.5 68t117.5 104.5t87.5 134t54.5 156t19 171
z" />
    <glyph glyph-name="honokhukthai" unicode="&#xe2e;" horiz-adv-x="1842" 
d="M1740 1861l-284 -347q64 -57 115 -127.5t86.5 -155t54.5 -182.5t19 -208q0 -136 -31.5 -253t-88 -213t-134.5 -170t-170 -124.5t-195.5 -76.5t-211.5 -26q-173 0 -316 59.5t-245 168t-158.5 261.5t-56.5 340v24.5t0.5 35.5l1 37.5t2.5 32.5h786v-196h-552
q6 -122 46.5 -224t110.5 -176.5t166.5 -116t215.5 -41.5q90 0 169 24.5t144.5 68t117.5 104.5t87.5 134t54.5 156t19 171q0 174 -50.5 301.5t-137 211t-201.5 123.5t-245 40q-70 0 -143.5 -17t-143.5 -50.5t-133.5 -82.5t-112.5 -112l-153 139q62 83 142.5 144.5t171.5 102
t188 60t193 19.5q215 0 394 -82l182 223h296z" />
    <glyph glyph-name="paiyannoithai" unicode="&#xe2f;" horiz-adv-x="1775" 
d="M713 684q-122 0 -224.5 40.5t-177 120t-116 197t-41.5 272.5v386h236v-382q0 -217 90.5 -326t290.5 -109q111 0 204 42t159.5 111t103.5 157.5t37 181.5v325h235v-1700h-235v961q-33 -53 -89 -103t-129.5 -88.5t-161 -62t-182.5 -23.5z" />
    <glyph glyph-name="saraathai" unicode="&#xe30;" horiz-adv-x="1070" 
d="M939 1153h-500q-69 0 -117.5 15t-81 39t-51 55t-28 63t-12 63t-2.5 55l4 108h225l-4 -92q0 -63 29.5 -88t86.5 -25h451v-193zM939 207h-500q-69 0 -117.5 15t-81 39t-51 55t-28 63t-12 63t-2.5 55l4 108h225l-4 -92q0 -63 29.5 -88t86.5 -25h451v-193z" />
    <glyph glyph-name="maihanakatthai" unicode="&#xe31;" 
d="M-38 1958h-835q-66 0 -113.5 15t-79.5 39t-52 55t-30 63t-13.5 63t-3.5 55v108h225v-92q0 -63 29.5 -88t86.5 -25h786v-193z" />
    <glyph glyph-name="saraaathai" unicode="&#xe32;" horiz-adv-x="1300" 
d="M498 1733q145 0 246.5 -46.5t166 -129t94 -194.5t29.5 -243v-1120h-236v1119q0 204 -77.5 307t-217.5 103q-114 0 -202.5 -56t-154.5 -156l-155 131q36 55 87.5 106.5t116 91t141 63.5t162.5 24z" />
    <glyph glyph-name="saraamthai" unicode="&#xe33;" horiz-adv-x="1300" 
d="M-653 2228q0 56 21 105t58 86t86 58t105 21t105 -21t86 -58t58 -86t21 -105t-21 -105t-58 -86t-86 -58t-105 -21t-105 21t-86 58t-58 86t-21 105zM-495 2228q0 -25 8 -47.5t23 -39t35.5 -26t45.5 -9.5t45.5 9.5t35.5 26t23 39t8 47.5t-8 47.5t-23 39t-35.5 26t-45.5 9.5
t-45.5 -9.5t-35.5 -26t-23 -39t-8 -47.5zM498 1733q145 0 246.5 -46.5t166 -129t94 -194.5t29.5 -243v-1120h-236v1119q0 204 -77.5 307t-217.5 103q-114 0 -202.5 -56t-154.5 -156l-155 131q36 55 87.5 106.5t116 91t141 63.5t162.5 24z" />
    <glyph glyph-name="saraithai" unicode="&#xe34;" 
d="M-1693 2151h1427v-193h-1427v193z" />
    <glyph glyph-name="saraiithai" unicode="&#xe35;" 
d="M-1693 2151h1192v295h235v-488h-1427v193z" />
    <glyph glyph-name="sarauethai" unicode="&#xe36;" 
d="M-1653 2151h972q-8 18 -11 39t-3 30q0 60 18 108.5t51.5 82.5t82 52t108.5 18t107.5 -18t81.5 -52t52 -82.5t18 -108.5t-20 -108t-55.5 -82.5t-84 -53t-104.5 -18.5h-1213v193zM-534 2221q0 -54 23 -80.5t76 -26.5q52 0 75.5 26.5t23.5 80.5q0 53 -23.5 81t-75.5 28
q-53 0 -76 -28t-23 -81z" />
    <glyph glyph-name="saraueethai" unicode="&#xe37;" 
d="M-1653 2151h852v295h195v-295h145v295h195v-488h-1387v193z" />
    <glyph glyph-name="sarauthai" unicode="&#xe38;" 
d="M-501 -726v268q0 43 -18.5 69t-59.5 26q-23 0 -43.5 -6t-43.5 -17l-54 154q38 22 75.5 34.5t68.5 19t53.5 8.5t31.5 2q66 0 109.5 -23t69 -57.5t36 -76t10.5 -78.5v-323h-235z" />
    <glyph glyph-name="sarauuthai" unicode="&#xe39;" 
d="M-1145 -237q21 13 50 23t58.5 17t57 10.5t45.5 3.5q57 0 89 -17t47.5 -44.5t18.5 -63t3 -72.5v-34q0 -42 11 -72.5t30 -51t44 -30t54 -9.5q25 0 49.5 9t43.5 28.5t31 50.5t12 76v224h235v-209q0 -77 -22 -140t-68.5 -107.5t-117.5 -69t-170 -24.5t-168 22t-112 62.5
t-62 97t-16 124.5q2 40 -8.5 57t-39.5 17q-8 0 -28 -3.5t-38 -11.5z" />
    <glyph glyph-name="phinthuthai" unicode="&#xe3a;" 
d="M-599 -345q0 37 14 69.5t38.5 57t56.5 38.5t68 14q37 0 69.5 -14t57 -38.5t38.5 -57t14 -69.5q0 -36 -14 -68t-38.5 -56.5t-57 -38.5t-69.5 -14q-36 0 -68 14t-56.5 38.5t-38.5 56.5t-14 68z" />
    <glyph glyph-name="PUCR2005" unicode="&#xe3e;" 
 />
    <glyph glyph-name="bahtthai" unicode="&#xe3f;" horiz-adv-x="2122" 
d="M275 2122h604v231h173v-231h141q70 0 137.5 -7t130.5 -23t119.5 -42.5t104.5 -65.5q88 -73 135 -175t47 -244q0 -99 -28 -173t-75.5 -128.5t-108.5 -92.5t-127 -64q94 -26 173 -71t136 -110.5t89 -153.5t32 -199q0 -143 -55.5 -250.5t-164.5 -181.5q-99 -67 -235 -104
t-295 -37h-156v-291h-173v291h-604v2122zM1717 573q0 91 -33 166t-100 128.5t-169.5 83t-241.5 29.5h-121v-774h166q114 0 206.5 23.5t157.5 69.5t100 114.5t35 159.5zM1627 1565q0 84 -30 149.5t-87.5 110t-140.5 68t-188 23.5h-129v-736h125q103 0 186.5 25.5t142 74.5
t90 121t31.5 164zM512 206h367v774h-367v-774zM512 1180h367v736h-367v-736z" />
    <glyph glyph-name="saraethai" unicode="&#xe40;" horiz-adv-x="767" 
d="M266 0v1700h235v-1700h-235z" />
    <glyph glyph-name="saraaethai" unicode="&#xe41;" horiz-adv-x="1353" 
d="M266 0v1700h235v-1700h-235zM852 0v1700h235v-1700h-235z" />
    <glyph glyph-name="saraothai" unicode="&#xe42;" horiz-adv-x="841" 
d="M319 1699q0 86 -23.5 157t-66 132t-103 115t-134.5 106q42 62 98.5 106.5t120.5 73.5t132.5 43t135.5 14q54 0 108.5 -8t106 -24t98.5 -38.5t85 -50.5l-91 -145q-46 25 -85.5 40.5t-76 24t-72.5 11.5t-74 3q-42 0 -95.5 -11t-105.5 -40q75 -64 127.5 -128t86 -127.5
t48.5 -126.5t15 -124v-1702h-235v1699z" />
    <glyph glyph-name="saraaimaimuanthai" unicode="&#xe43;" horiz-adv-x="846" 
d="M560 0h-235v1720q39 27 87 66.5t90.5 87.5t71.5 103t30 114q0 37 -11 68.5t-35 54t-62 35.5t-92 13q-66 0 -124 -21t-108 -47l-80 159q24 16 61.5 33t82.5 30.5t94 22t96 8.5q88 0 158.5 -22.5t119.5 -65.5t75.5 -105.5t26.5 -142.5q0 -74 -26 -139.5t-63.5 -121
t-80.5 -99.5t-76 -74v-1677z" />
    <glyph glyph-name="saraaimaimalaithai" unicode="&#xe44;" horiz-adv-x="846" 
d="M559 0h-235l-3 1638q0 83 24 166.5t64.5 161.5t94.5 147.5t113 125.5q-26 -12 -57.5 -19t-64 -11.5t-65 -5.5t-59.5 -1q-48 0 -97.5 6t-96.5 17t-88.5 26t-72.5 33l67 170q37 -22 81.5 -36.5t88 -23t81.5 -12t64 -3.5q25 0 60 2t78 9t93 21t106 38l142 -145
q-47 -49 -103 -121t-104.5 -159t-81 -185.5t-32.5 -201.5z" />
    <glyph glyph-name="lakkhangyaothai" unicode="&#xe45;" horiz-adv-x="1300" 
d="M498 1722q144 0 245.5 -43.5t166 -123.5t94.5 -193t30 -253v-1608h-236v1607q0 97 -15 175.5t-50 133t-91.5 84t-138.5 29.5q-57 0 -112.5 -17t-106 -47t-93.5 -72t-75 -91l-142 133q44 62 99.5 114.5t121.5 90.5t141.5 59.5t161.5 21.5z" />
    <glyph glyph-name="maiyamokthai" unicode="&#xe46;" horiz-adv-x="1788" 
d="M158 1136q0 110 35.5 214t101 184.5t157.5 129.5t206 49q63 0 114 -13t91 -34.5t71 -48.5t55 -55.5t42 -56l33 -48.5l293 243h165v-2198h-235v1908l-276 -234q-10 20 -24.5 53.5t-35 71.5t-48 76.5t-63 70t-79.5 51t-97 19.5q-58 0 -107.5 -31.5t-85.5 -84.5t-56 -122
t-20 -144q0 -92 22 -162t59 -117.5t86 -71.5t104 -24q18 0 37.5 6t38 16t34 21.5t26.5 22.5l94 -128q-32 -39 -66.5 -61.5t-67 -34.5t-60.5 -15t-47 -3q-94 0 -183.5 39.5t-159 112t-112 174t-42.5 225.5z" />
    <glyph glyph-name="maitaikhuthai" unicode="&#xe47;" 
d="M-1053 1917q-68 7 -125 28t-99 55t-65.5 81t-23.5 106t30.5 112t92 92.5t153.5 63t216 23.5q30 0 67 -3.5t73.5 -9t68 -11.5t50.5 -11l64 102h216l-172 -281q-29 13 -76.5 25t-100.5 21t-104.5 14.5t-87.5 5.5q-49 0 -99.5 -7.5t-91 -24.5t-66 -44t-25.5 -67
q0 -25 9.5 -42.5t23.5 -29.5t31.5 -20t33.5 -12l219 87q25 -31 49 -50.5t46 -31t41.5 -15.5t36.5 -4q32 0 53.5 14t21.5 46q0 17 -9 41h187q5 -14 7 -29t2 -29q0 -38 -16.5 -73.5t-47 -63t-73 -44t-93.5 -15.5q-25 0 -55 5.5t-60.5 17t-58 28.5t-48.5 40z" />
    <glyph glyph-name="maiekthai" unicode="&#xe48;" 
d="M-481 2590v431h215v-431h-215z" />
    <glyph glyph-name="maithothai" unicode="&#xe49;" 
d="M-120 3003q-13 -61 -44 -117.5t-79.5 -104.5t-114 -85t-146.5 -60q-101 -29 -182.5 -38.5t-136.5 -14.5l-42 111q22 19 40 38q15 17 28 37t13 40q0 17 -8 29t-20 20t-26 12t-26 4q-19 0 -34.5 -5t-35.5 -13l-42 122q30 17 61 28t57 17t44.5 8.5t25.5 2.5q42 0 73.5 -11.5
t53.5 -31t33 -46t11 -56.5t-11.5 -68t-36.5 -67q62 8 119.5 27.5t103.5 51t78.5 74t45.5 95.5z" />
    <glyph glyph-name="maitrithai" unicode="&#xe4a;" 
d="M-537 2954q56 44 103.5 63.5t92.5 19.5q41 0 69 -15t45.5 -38t25.5 -49.5t8 -48.5q0 -28 -6.5 -58t-17.5 -53q33 20 59 50.5t44 64.5t27.5 67t9.5 59h171q-6 -57 -27.5 -110.5t-54.5 -100.5t-75.5 -86.5t-89 -68t-95.5 -45t-96 -17.5h-16t-16 1l-34 108q25 8 43 28
q8 7 13 19t8 24.5t4 25.5t1 23q0 22 -5.5 36t-13 21.5t-15.5 10.5t-14 3q-20 0 -41 -8.5t-40.5 -20t-35.5 -22.5t-26 -15h-10q-10 4 -24.5 15t-32.5 22.5t-38 20t-39 8.5q-33 0 -47 -24t-12 -55q2 -36 24 -55t48 -22q12 -2 28 1l-37 -135q-11 -4 -28 -7.5t-37 -1.5
q-43 3 -75 26t-52.5 57t-30 75t-8.5 80q1 45 15 83.5t37.5 66.5t54.5 44t66 16q58 0 105.5 -23t87.5 -60z" />
    <glyph glyph-name="maichattawathai" unicode="&#xe4b;" 
d="M-720 2922h240v169h211v-169h240v-164h-240v-168h-211v168h-240v164z" />
    <glyph glyph-name="thanthakhatthai" unicode="&#xe4c;" 
d="M-114 2577h-346q-45 0 -67.5 -24t-22.5 -58q0 -29 15 -52.5l32 -50.5l-181 -86q-28 31 -45 65t-26.5 64t-12.5 54t-3 37q0 69 27 111t68 65t89.5 31t91.5 8h381v-164z" />
    <glyph glyph-name="nikhahitthai" unicode="&#xe4d;" 
d="M-653 2228q0 56 21 105t58 86t86 58t105 21t105 -21t86 -58t58 -86t21 -105t-21 -105t-58 -86t-86 -58t-105 -21t-105 21t-86 58t-58 86t-21 105zM-495 2228q0 -25 8 -47.5t23 -39t35.5 -26t45.5 -9.5t45.5 9.5t35.5 26t23 39t8 47.5t-8 47.5t-23 39t-35.5 26t-45.5 9.5
t-45.5 -9.5t-35.5 -26t-23 -39t-8 -47.5z" />
    <glyph glyph-name="yamakkanthai" unicode="&#xe4e;" 
d="M-90 2420h-231q-13 0 -27 -4.5t-25.5 -14.5t-19 -26.5t-7.5 -40.5v-110h-152q-50 0 -75.5 -25t-25.5 -83v-88h-215v103q0 34 8 81t36 90t81.5 73.5t144.5 32.5q7 34 23.5 69.5t48 63.5t80.5 46t120 18h236v-185z" />
    <glyph glyph-name="fongmanthai" unicode="&#xe4f;" horiz-adv-x="2208" 
d="M226 849q0 121 31.5 233.5t88.5 210t137 177.5t177.5 137t210 88.5t233.5 31.5t233.5 -31.5t210 -88.5t177.5 -137t137 -177.5t88.5 -210t31.5 -233.5t-31.5 -233.5t-88.5 -210t-137 -177.5t-177.5 -137t-210 -88.5t-233.5 -31.5t-233.5 31.5t-210 88.5t-177.5 137
t-137 177.5t-88.5 210t-31.5 233.5zM651 849q0 94 35.5 176.5t97 144t144 97t176.5 35.5t176.5 -35.5t144 -97t97 -144t35.5 -176.5t-35.5 -176.5t-97 -144t-144 -97t-176.5 -35.5t-176.5 35.5t-144 97t-97 144t-35.5 176.5zM830 849q0 -57 21.5 -106.5t59 -87t87 -59
t106.5 -21.5t106.5 21.5t87 59t59 87t21.5 106.5t-21.5 106.5t-59 87t-87 59t-106.5 21.5t-106.5 -21.5t-87 -59t-59 -87t-21.5 -106.5zM421 848q0 -142 54 -266.5t147 -217.5t217.5 -147t266.5 -54t266.5 54t217.5 147t147 217.5t54 266.5t-54 266.5t-147 217.5t-217.5 147
t-266.5 54t-266.5 -54t-217.5 -147t-147 -217.5t-54 -266.5z" />
    <glyph glyph-name="zerothai" unicode="&#xe50;" horiz-adv-x="2113" 
d="M1937 757q0 -165 -58 -309.5t-169.5 -252t-275.5 -169.5t-376 -62t-376 62t-276 169.5t-169.5 252t-57.5 309.5q0 109 26 210t76.5 188.5t125 159.5t172 123.5t217.5 79.5t262 28q141 0 261.5 -28t218 -79.5t172 -123.5t125 -159.5t76.5 -188.5t26 -210zM418 755
q0 -113 39 -217.5t118 -184.5t199 -128t282 -48t282 48t199 128t118 184.5t39 217.5t-39 217.5t-118 184.5t-199 128t-282 48t-282 -48t-199 -128t-118 -184.5t-39 -217.5z" />
    <glyph glyph-name="onethai" unicode="&#xe51;" horiz-adv-x="2112" 
d="M292 952q0 80 27.5 155.5t78 141.5t122 120.5t159 94t188.5 61t212 21.5q181 0 336.5 -54.5t269.5 -156t178.5 -245.5t64.5 -323q0 -110 -35 -212.5t-98.5 -191.5t-151.5 -162.5t-193.5 -126t-225 -81.5t-246.5 -29q-135 0 -259 18.5t-232.5 54.5t-198 90.5t-155.5 126.5
l192 131q73 -72 156.5 -115t169.5 -65.5t170.5 -29t159.5 -6.5q84 0 168.5 21t162.5 59.5t146 92.5t118.5 120.5t79.5 143t29 159.5q0 134 -45.5 240t-126.5 180t-192.5 113t-243.5 39q-117 0 -216 -30t-170.5 -82t-111.5 -121t-40 -148q0 -77 35 -130.5t85.5 -86.5
t106.5 -48t98 -15t88.5 14t81.5 36l76 -171q-54 -37 -118 -56t-151 -19q-47 0 -105.5 10t-119.5 32.5t-119 59t-103.5 89t-73.5 122t-28 159.5z" />
    <glyph glyph-name="twothai" unicode="&#xe52;" horiz-adv-x="2112" 
d="M1958 688q0 -111 -36 -207t-99 -175t-149 -140t-186 -103t-210.5 -64t-221.5 -22t-221.5 22t-210.5 64t-186 103t-149 140t-99 175t-36 207v1081h235v-1097q0 -72 26.5 -136.5t73 -118.5t110.5 -97.5t138 -73.5t155 -46t163 -16t163.5 16t155.5 46t138 73.5t111 97.5
t73.5 118.5t26.5 136.5v578l-428 -347l-64 53q11 26 17.5 56.5t6.5 69.5q0 46 -14.5 89.5t-42 76.5t-68.5 53t-95 20q-49 0 -87.5 -19t-65.5 -51.5t-41.5 -75.5t-14.5 -91q0 -35 11 -80.5t34 -90.5h-199q-12 20 -20.5 46t-14 51.5t-8.5 46.5t-3 31q0 91 30.5 170t85.5 137
t130.5 91t164.5 33q77 0 142 -21t114.5 -59t81.5 -91.5t43 -118.5l359 290l181 -1v-830z" />
    <glyph glyph-name="threethai" unicode="&#xe53;" horiz-adv-x="2112" 
d="M1998 741q0 -149 -27 -272t-64 -217t-75 -157.5t-60 -93.5h-256q40 51 83.5 122.5t80 163.5t60 205t23.5 248q0 77 -11.5 150.5t-33 139t-52.5 120t-70.5 94.5t-86.5 62t-101 22q-51 0 -92.5 -24t-71 -65.5t-46 -97t-16.5 -119.5l-1 -207h-237v207q0 64 -17.5 119.5
t-47.5 97t-71.5 65.5t-89.5 24q-76 0 -143 -42t-117 -119t-79 -185.5t-29 -242.5q0 -123 31.5 -225.5t84.5 -176.5t121.5 -115t143.5 -41q46 0 93 17.5t85 59.5l122 -141q-37 -35 -72 -60t-71.5 -41t-76.5 -24t-86 -8q-88 0 -167.5 25.5t-147 73.5t-122.5 115.5t-93.5 151.5
t-59 182.5t-20.5 207.5q0 169 43 315.5t121.5 254t188.5 169t244 61.5q50 0 100.5 -13t97 -39t85.5 -65t66 -92q25 53 62.5 92t81.5 65t92.5 39t96.5 13q94 0 175 -28t148 -79.5t119.5 -124t88.5 -161.5t54.5 -191.5t18.5 -214.5z" />
    <glyph glyph-name="fourthai" unicode="&#xe54;" horiz-adv-x="2114" 
d="M1153 -25q-218 0 -397 58.5t-306 163.5t-196.5 249.5t-69.5 316.5q0 160 62.5 302t183.5 248.5t299 168.5t408 62q69 0 150 -8t160 -24t149.5 -40.5t118.5 -56.5l118 354h248l-233 -679q-49 53 -123 98.5t-166.5 78.5t-200 52t-224.5 19q-157 0 -287 -42.5t-223.5 -119
t-145 -181.5t-51.5 -230q0 -127 53 -231.5t147 -180.5t223.5 -121t283.5 -54h53q-44 27 -79 63t-59 79.5t-37 92.5t-13 101q0 94 31.5 163t78.5 115.5t103 72.5t104 35l131 -159q-71 -7 -115.5 -32.5t-70 -60.5t-34.5 -75.5t-9 -76.5q0 -55 19 -101t51.5 -83.5t75.5 -65
t90 -45.5q43 9 86 21.5t87.5 31t92.5 42.5t101 56l124 -149q-55 -48 -141.5 -89.5t-192 -72t-223.5 -48.5t-235 -18z" />
    <glyph glyph-name="fivethai" unicode="&#xe55;" horiz-adv-x="2114" 
d="M175 763q0 145 56.5 272.5t154 227t229.5 167t282 93.5q-20 48 -20 101q0 54 20.5 101.5t55.5 82.5t82.5 55.5t101.5 20.5t101.5 -20.5t82.5 -55.5t55.5 -82.5t20.5 -101.5q0 -50 -19 -97q64 -9 142 -28t158 -50.5t154.5 -77t131.5 -108.5l-130 -147
q-125 107 -297.5 165.5t-401.5 58.5q-153 0 -284 -43t-227.5 -119.5t-151 -182t-54.5 -230.5q0 -127 55 -231.5t150.5 -181t224.5 -122t277 -54.5h56q-91 53 -141 142.5t-50 195.5q0 94 31.5 163t78.5 115.5t103 72.5t104 35l131 -159q-71 -7 -115.5 -32.5t-70 -60.5
t-34.5 -75.5t-9 -76.5q0 -56 19.5 -102.5t53 -84t77.5 -65.5t92 -45q89 17 183 54t211 103l116 -143q-70 -56 -162 -100t-198.5 -74.5t-223 -47t-233.5 -16.5q-218 0 -397 58.5t-306 163.5t-196.5 249.5t-69.5 316.5zM1049 1627q0 -37 25.5 -62.5t62.5 -25.5t62.5 25.5
t25.5 62.5t-25.5 62.5t-62.5 25.5t-62.5 -25.5t-25.5 -62.5z" />
    <glyph glyph-name="sixthai" unicode="&#xe56;" horiz-adv-x="2113" 
d="M496 539q36 -101 95.5 -170.5t133.5 -112.5t159 -62.5t172 -19.5q133 0 243 46.5t189 125.5t123 182.5t44 216.5q0 135 -44.5 244.5t-124 187t-189.5 119t-241 41.5q-85 0 -178 -16t-183.5 -50.5t-174 -89.5t-150.5 -132l-238 720h248l122 -379q50 34 112.5 62.5
t133.5 48.5t149 31.5t158 11.5q204 0 361 -61t264.5 -168t162.5 -253.5t55 -318.5q0 -164 -60.5 -304.5t-171 -243.5t-265.5 -161.5t-343 -58.5q-304 0 -504 119.5t-280 351.5z" />
    <glyph glyph-name="seventhai" unicode="&#xe57;" horiz-adv-x="2114" 
d="M1421 0l201 603q9 27 18 64t16.5 75t12.5 74t5 62q0 52 -8.5 105.5t-26 104t-44 94.5t-62.5 77.5t-82.5 52.5t-102.5 19q-48 0 -89.5 -26t-72 -70t-48 -101.5t-17.5 -121.5v-207h-237v207q0 64 -17 121.5t-47.5 101.5t-72 70t-89.5 26q-79 0 -140 -48t-103 -129
t-63.5 -188.5t-21.5 -226.5q0 -115 25.5 -216.5t70.5 -177.5t107.5 -120t137.5 -44q53 0 99 22.5t87 61.5l112 -149q-37 -38 -71.5 -63t-70.5 -40.5t-76 -22t-86 -6.5q-132 0 -237.5 55.5t-179.5 155.5t-113.5 239t-39.5 306q0 175 38 322t110.5 253.5t177 165.5t237.5 59
q60 0 113 -16.5t97.5 -44.5t78 -66.5t54.5 -81.5q18 43 51.5 81.5t79 66.5t99.5 44.5t113 16.5q95 0 170.5 -24t133.5 -70t99.5 -113.5t67.5 -155.5l198 592h248l-590 -1769h-250z" />
    <glyph glyph-name="eightthai" unicode="&#xe58;" horiz-adv-x="2113" 
d="M680 -27q-103 36 -193.5 108t-157.5 172t-105.5 224.5t-38.5 265.5q0 107 29 207.5t84 189t134.5 162t181.5 126.5t224.5 82.5t263.5 29.5q88 0 168.5 -9.5t151.5 -25t131 -36.5t108 -44l113 334h248l-227 -664q-53 43 -125 86t-160.5 76.5t-191.5 54.5t-217 21
q-140 0 -262.5 -45t-214 -124t-144 -186.5t-52.5 -232.5q0 -99 15 -173.5t46 -136t79 -114.5t115 -108l440 270l434 -257q31 19 58.5 47t48.5 63.5t33.5 77t13.5 86.5q1 42 -15.5 79.5t-45.5 67.5t-69.5 50.5t-88.5 28.5l69 195q101 -21 168.5 -67.5t108.5 -105.5t58.5 -124
t17.5 -124q0 -92 -26.5 -175t-72 -151t-107.5 -119t-133 -79l-452 271z" />
    <glyph glyph-name="ninethai" unicode="&#xe59;" horiz-adv-x="2113" 
d="M892 -24q-84 0 -168 22.5t-160.5 67.5t-143 113.5t-115 159.5t-76.5 205.5t-28 252.5q0 97 20.5 190t59 175.5t93.5 152.5t124.5 120.5t151.5 78.5t175 28q55 0 105.5 -8t97 -27.5t88.5 -51t80 -77.5q24 35 58 63.5t74.5 48t85 30t89.5 10.5q28 0 57 -2.5t60 -11t65 -25
t71 -45.5l104 323h248l-222 -654q-66 74 -123 117.5t-103 66t-80.5 28.5t-55.5 6q-57 0 -98.5 -14t-68 -34.5t-38 -44t-8.5 -42.5q3 -16 12.5 -36.5l19.5 -42.5l561 -1119h-255l-553 1094q-14 29 -36.5 70t-56 79t-78 65t-100.5 27q-66 0 -133.5 -38.5t-122.5 -109
t-89.5 -170t-34.5 -220.5q0 -170 40 -289t102.5 -194t139 -109.5t148.5 -34.5q23 0 55 4.5t66 15.5t66 28t54 43l100 -148q-30 -36 -72 -62t-87 -42.5t-88.5 -24.5t-76.5 -8z" />
    <glyph glyph-name="angkhankhuthai" unicode="&#xe5a;" horiz-adv-x="2185" 
d="M663 684q-122 0 -216.5 40.5t-159.5 120t-99 197t-34 272.5v386h236v-382q0 -217 79.5 -326t251.5 -109q101 0 184.5 42t143.5 111t93 157.5t33 181.5v325h235v-1700h-235v961q-33 -53 -81.5 -103t-112.5 -88.5t-143.5 -62t-174.5 -23.5zM1685 1700h235v-1700h-235v1700z
" />
    <glyph glyph-name="khomutthai" unicode="&#xe5b;" horiz-adv-x="3094" 
d="M1484 1157q0 -105 -31.5 -191.5t-85.5 -148t-125 -95t-149 -33.5q-13 0 -32.5 2.5t-40 7t-40.5 12t-34 17.5l56 161q8 -5 29.5 -11.5t44.5 -6.5q48 0 84 23.5t60 60.5t36.5 83.5t12.5 93.5q0 92 -27.5 163.5t-75 121t-110.5 75.5t-133 26q-99 3 -190.5 -41t-161.5 -130
t-112 -212t-42 -287q0 -154 48.5 -277t131.5 -208.5t192 -131t231 -45.5q110 0 209.5 34t183.5 96t151.5 148.5t115 190.5t73 223t25.5 246l228 127q23 -32 51 -77t55.5 -94.5t51.5 -100t41 -93.5q11 36 26.5 73t32 71l31 63t23.5 50h101q25 -45 58.5 -113.5t68.5 -149.5
l34 68t28 51t24 37.5t22 26.5q20 20 45.5 24t46.5 4h233l2 -186h-216q-32 0 -56.5 -24t-44 -62t-34 -85t-25.5 -93l-115 -41q-14 41 -30 81l-31.5 76t-30 66.5t-26.5 53.5l-26 -61.5t-29.5 -73.5t-26 -74t-14.5 -61l-131 -24q-38 102 -81.5 198t-97.5 186q-18 -221 -95 -401
t-201.5 -308t-290 -197.5t-359.5 -69.5q-182 0 -335.5 65t-265.5 180.5t-175 274.5t-63 347q0 183 55.5 338t155.5 268t238.5 177t305.5 64q130 0 232 -47.5t172.5 -124.5t107 -175.5t36.5 -200.5z" />
    <glyph glyph-name="saraulowthai" unicode="&#xf718;" 
d="M-501 -1156v268q0 43 -18.5 69t-59.5 26q-23 0 -43.5 -6t-43.5 -17l-54 154q38 22 75.5 34.5t68.5 19t53.5 8.5t31.5 2q66 0 109.5 -23t69 -57.5t36 -76t10.5 -78.5v-323h-235z" />
    <glyph glyph-name="sarauulowthai" unicode="&#xf719;" 
d="M-1145 -657q21 13 50 23t58.5 17t57 10.5t45.5 3.5q57 0 89 -17t47.5 -44.5t18.5 -63t3 -72.5v-34q0 -42 11 -72.5t30 -51t44 -30t54 -9.5q25 0 49.5 9t43.5 28.5t31 50.5t12 76v224h235v-209q0 -77 -22 -140t-68.5 -107.5t-117.5 -69t-170 -24.5t-168 22t-112 62.5
t-62 97t-16 124.5q2 40 -8.5 57t-39.5 17q-8 0 -28 -3.5t-38 -11.5z" />
    <glyph glyph-name="phinthulowthai" unicode="&#xf71a;" 
d="M-604 -775q0 37 14 69.5t38.5 57t56.5 38.5t68 14q37 0 69.5 -14t57 -38.5t38.5 -57t14 -69.5q0 -36 -14 -68t-38.5 -56.5t-57 -38.5t-69.5 -14q-36 0 -68 14t-56.5 38.5t-38.5 56.5t-14 68z" />
    <glyph glyph-name="lochula.short" unicode="&#xf71d;" horiz-adv-x="2112" 
d="M1746 1516q47 -24 82.5 -65.5t57 -93.5t27.5 -112.5t-5 -121.5l-207 -1124h-203l-433 862l-445 -861h-203l-231 1700h237l165 -1331l477 916l470 -937l144 775q14 77 -3 147t-62.5 123.5t-117.5 85.5t-166 32l1 190h708v-185h-293z" />
    <glyph glyph-name="uni25CC" unicode="&#x25cc;" horiz-adv-x="1986" 
d="M766 531l-140 -45l50 140q38 -56 90 -95zM922 1223l69 132l65 -128q-31 3 -61 3q-35 0 -73 -7zM1052 463l-61 -125l-60 125q29 -7 64 -7q30 0 57 7zM1378 907l122 -64l-122 -57q4 27 4 57q0 34 -4 64zM616 783l-134 68l134 64q-5 -34 -5 -72q0 -30 5 -60zM683 1074
l-38 137l134 -46q-58 -37 -96 -91zM1302 607l38 -121l-122 37q50 35 84 84zM1215 1165l144 46l-49 -141q-38 54 -95 95z" />
    <glyph glyph-name="yamakkanleftthai" 
d="M-580 2420h-171q-13 0 -27 -4.5t-25.5 -14.5t-19 -26.5t-7.5 -40.5v-110h-152q-50 0 -75.5 -25t-25.5 -83v-88h-215v103q0 34 8 81t36 90t81.5 73.5t144.5 32.5q7 34 23.5 69.5t48 63.5t80.5 46t120 18h176v-185z" />
    <glyph glyph-name="copyright" unicode="&#xa9;" horiz-adv-x="2506" 
d="M1282 419q-128 0 -236 46.5t-186 131.5t-122 203.5t-44 261.5v17q0 143 46 262.5t126 205t188.5 133t233.5 47.5q72 0 133 -13t113 -36t96.5 -54.5t85.5 -67.5l-108 -132q-28 26 -61 51t-72 44.5t-85.5 31t-101.5 11.5q-91 0 -167 -34.5t-131 -97.5t-86 -151.5
t-31 -195.5v-20q0 -107 31.5 -195.5t87 -151.5t132 -97.5t167.5 -34.5q89 0 177 34t157 99l100 -123q-39 -38 -89 -70t-107 -55.5t-119.5 -36.5t-127.5 -13zM160 1066q0 151 39 290.5t110.5 261t171 221t221 171t261 110.5t290.5 39t290.5 -39t261 -110.5t221 -171t171 -221
t110.5 -261t39 -290.5t-39 -290.5t-110.5 -261t-171 -221t-221 -171t-261 -110.5t-290.5 -39t-290.5 39t-261 110.5t-221 171t-171 221t-110.5 261t-39 290.5zM322 1059q0 -128 33.5 -247t94 -222.5t145.5 -188.5t188.5 -145.5t222 -94t247.5 -33.5q128 0 247 33.5t222.5 94
t188.5 145.5t145.5 188.5t94 222t33.5 247.5q0 128 -33.5 247t-94 222.5t-145.5 188.5t-188.5 145.5t-222.5 94t-247 33.5q-129 0 -247.5 -33.5t-222 -94t-188.5 -145.5t-145.5 -188.5t-94 -222.5t-33.5 -247z" />
    <glyph glyph-name="registered" unicode="&#xae;" horiz-adv-x="2507" 
d="M850 1731h534q86 0 158.5 -25.5t125 -75.5t82 -124t29.5 -171q0 -77 -19 -138t-53 -108t-80.5 -81.5t-101.5 -57.5l279 -513h-189l-249 480h-356v-480h-160v1294zM1366 1062q60 0 106.5 18.5t78.5 52.5t48.5 81.5t16.5 105.5q0 63 -17.5 111t-50 80t-78.5 48t-104 16
h-356v-513h356zM160 1066q0 151 39 290.5t110.5 261t171 221t221 171t261 110.5t290.5 39t290.5 -39t261 -110.5t221 -171t171 -221t110.5 -261t39 -290.5t-39 -290.5t-110.5 -261t-171 -221t-221 -171t-261 -110.5t-290.5 -39t-290.5 39t-261 110.5t-221 171t-171 221
t-110.5 261t-39 290.5zM322 1059q0 -128 33.5 -247t94 -222.5t145.5 -188.5t188.5 -145.5t222 -94t247.5 -33.5q128 0 247 33.5t222.5 94t188.5 145.5t145.5 188.5t94 222t33.5 247.5q0 128 -33.5 247t-94 222.5t-145.5 188.5t-188.5 145.5t-222.5 94t-247 33.5
q-129 0 -247.5 -33.5t-222 -94t-188.5 -145.5t-145.5 -188.5t-94 -222.5t-33.5 -247z" />
    <glyph glyph-name="trademark" unicode="&#x2122;" horiz-adv-x="1908" 
d="M922 2122h139l267 -392l286 392h137v-820h-134v608l-278 -373h-25l-258 373v-608h-134v820zM402 2006h-291v116h719v-116h-291v-704h-137v704z" />
    <glyph glyph-name="multiply" unicode="&#xd7;" horiz-adv-x="1514" 
d="M755 890l-374 -387l-151 144l387 387l-387 390l153 147l375 -388l377 388l148 -145l-384 -386l384 -391l-152 -146z" />
    <glyph glyph-name="divide" unicode="&#xf7;" horiz-adv-x="1581" 
d="M200 921v212h1180v-212h-1180zM627 1486q0 33 13 62.5t35 51.5t51.5 35t62.5 13t62.5 -13t51.5 -35t35 -51.5t13 -62.5t-13 -62.5t-35 -51.5t-51.5 -35t-62.5 -13t-62.5 13t-51.5 35t-35 51.5t-13 62.5zM627 569q0 33 13 62.5t35 51.5t51.5 35t62.5 13t62.5 -13t51.5 -35
t35 -51.5t13 -62.5t-13 -62.5t-35 -51.5t-51.5 -35t-62.5 -13t-62.5 13t-51.5 35t-35 51.5t-13 62.5z" />
    <glyph glyph-name="ZWSP" unicode="&#x200b;" 
 />
    <glyph glyph-name="yoyingthai" unicode="&#xe0d;" horiz-adv-x="2746" 
d="M1920 172q-63 0 -129 14t-128 44t-117 76t-95.5 110t-64.5 147t-24 186v299q-2 130 -37 218.5t-93 143t-133 78t-155 23.5q-98 0 -175 -17.5t-136.5 -46.5t-103 -66t-75.5 -76l240 -264q-46 -44 -89.5 -97t-77.5 -117.5t-54 -143t-19 -172.5q0 -54 15.5 -112t44 -106
t70.5 -79t95 -31q30 0 56.5 7.5t48.5 18.5l104 -163q-34 -26 -90 -43.5t-127 -17.5q-72 0 -132 21.5t-109 58.5t-86 87.5t-62 108.5t-38 121.5t-14 127.5q-1 93 13 167.5t41 139.5t65.5 123t87.5 118l-237 252q18 26 49.5 66.5t77 86t106 91t137.5 82.5t170 60t204 23
q82 0 162.5 -18t153 -54t134.5 -91t107 -129.5t70.5 -169t25.5 -209.5v-295q0 -108 29 -180t75.5 -114.5t104.5 -60t116 -17.5t115 17.5t103 60t74.5 114.5t28.5 180l1 947h236v-951q0 -103 -24 -186t-65 -147t-96 -110t-117.5 -76t-128.5 -44t-129 -14zM1381 2h1070v-193
h-1070v193z" />
    <glyph glyph-name="sterling" unicode="&#xa3;" horiz-adv-x="1825" 
d="M428 1482q0 144 47 264.5t134 208t211 136t277 48.5q97 0 186 -22t166 -58.5t139 -83t104 -95.5l-147 -136q-45 46 -96.5 83.5t-109 63t-121 38.5t-132.5 11q-110 -4 -189.5 -40.5t-131 -97t-76.5 -142t-25 -175.5v-353h829v-194h-829v-630q0 -32 -7.5 -60t-28.5 -48
h1078v-200h-1510v117q27 6 66.5 17t76.5 28.5t63 43.5t26 64v668h-224v194h224v350z" />
    <glyph glyph-name="yen" unicode="&#xa5;" horiz-adv-x="2165" 
d="M1785 2122h281l-792 -1163h630v-166h-701v-189h701v-166h-701v-438h-240v438h-684v166h684v189h-684v166h613l-792 1163h281l702 -1063z" />
    <glyph glyph-name="cent" unicode="&#xa2;" horiz-adv-x="1753" 
d="M879 230q-90 11 -177 42t-164.5 80.5t-143.5 117t-113.5 152.5t-74.5 187t-27 221q0 109 25 207.5t70.5 184t109 156t141.5 124t167.5 88t186.5 47.5v346h173v-340q88 -6 164.5 -28t143.5 -57t125.5 -81t111.5 -100l-153 -138q-87 97 -181 148t-211 62v-1233
q110 12 211 64t187 141l142 -143q-106 -114 -244.5 -178t-295.5 -75v-286h-173v291zM403 1035q0 -139 41 -246t108 -183t152.5 -121.5t174.5 -62.5v1219q-92 -18 -178 -67t-152 -126.5t-106 -181t-40 -231.5z" />
    <glyph glyph-name="Euro" unicode="&#x20ac;" horiz-adv-x="2471" 
d="M1430 -36q-194 0 -362 60t-301 167.5t-225 256t-134 326.5h-271v168h244q-2 27 -3.5 54.5t-1.5 56.5q0 74 9 146h-248v168h282q47 169 142 312.5t228.5 248.5t300.5 164.5t359 59.5q127 0 239.5 -22t214 -66t194.5 -111.5t181 -158.5l-157 -165q-79 80 -158.5 137.5
t-162.5 94t-171 53.5t-183 17q-137 0 -258.5 -41.5t-221 -116t-174 -178t-117.5 -228.5h994v-168h-1035q-5 -36 -7.5 -72t-2.5 -74q0 -57 6 -111h1039v-168h-1006q39 -131 112 -239t173.5 -186t224 -121t263.5 -43q394 0 671 337l189 -153q-109 -114 -209 -191.5t-202 -125
t-213 -68t-242 -20.5z" />
    <glyph glyph-name="onequarter" unicode="&#xbc;" horiz-adv-x="2368" 
d="M2023 2h-174v230h-542l-27 141l552 713h191v-695h161v-159h-161v-230zM1852 875l-371 -487h371v487zM163 848v165h318v717l-239 -117l-59 158l344 159h142v-917h293v-165h-799zM1850 1932h201l-1268 -1955h-200z" />
    <glyph glyph-name="onehalf" unicode="&#xbd;" horiz-adv-x="2411" 
d="M1399 128l432 351l83 69t71 66.5t49.5 69.5t18.5 79q0 36 -14.5 65.5t-40 50.5t-60.5 33t-76 12q-59 0 -109 -14t-90.5 -36t-70.5 -49t-48 -53l-124 117q33 39 76.5 75.5t98 64.5t121 45t146.5 17q79 0 148.5 -21.5t120.5 -63t80.5 -100.5t29.5 -134q0 -68 -26 -124.5
t-69.5 -107t-101 -96.5t-120.5 -91l-249 -187h566v-165h-842v127zM1780 1932h201l-1268 -1955h-200zM163 848v165h318v717l-239 -117l-59 158l344 159h142v-917h293v-165h-799z" />
    <glyph glyph-name="threequarters" unicode="&#xbe;" horiz-adv-x="2276" 
d="M556 840q-57 0 -112 14t-104 38.5t-90.5 57.5t-71.5 71l110 129q63 -80 133.5 -111.5t137.5 -31.5q36 0 76 10.5t74.5 32.5t57 56t22.5 80q0 45 -22 80.5t-58.5 59.5t-84 37t-99.5 13h-78l-39 94l309 298h-475v162h709v-126l-298 -288q54 -9 110.5 -36t103 -69.5
t76 -98.5t29.5 -123q0 -80 -36.5 -144.5t-95.5 -110t-133.5 -70t-150.5 -24.5zM1768 1932h201l-1268 -1955h-200zM1943 2h-174v230h-542l-27 141l552 713h191v-695h161v-159h-161v-230zM1772 875l-371 -487h371v487z" />
    <glyph glyph-name="uni0E33.alt1" horiz-adv-x="1286" 
d="M484 1722q144 0 245.5 -43.5t166 -123.5t94.5 -193t30 -253v-1109h-236v1108q0 97 -15 175.5t-50 133t-91.5 84t-138.5 29.5q-57 0 -112.5 -17t-106 -47t-93.5 -72t-75 -91l-142 133q44 62 99.5 114.5t121.5 90.5t141.5 59.5t161.5 21.5zM-1243 2228q0 56 21 105t58 86
t86 58t105 21t105 -21t86 -58t58 -86t21 -105t-21 -105t-58 -86t-86 -58t-105 -21t-105 21t-86 58t-58 86t-21 105zM-1085 2228q0 -25 8 -47.5t23 -39t35.5 -26t45.5 -9.5t45.5 9.5t35.5 26t23 39t8 47.5t-8 47.5t-23 39t-35.5 26t-45.5 9.5t-45.5 -9.5t-35.5 -26t-23 -39
t-8 -47.5z" />
    <glyph glyph-name="guillemotleft" unicode="&#xab;" horiz-adv-x="1612" 
d="M734 1440l159 -111l-444 -541l444 -541l-159 -111l-549 653zM1275 1440l159 -111l-444 -541l444 -541l-159 -111l-549 653z" />
    <glyph glyph-name="guillemotright" unicode="&#xbb;" horiz-adv-x="1612" 
d="M1427 789l-549 -653l-159 111l444 541l-444 541l159 111zM886 789l-549 -653l-159 111l444 541l-444 541l159 111z" />
    <glyph glyph-name="thothannobasethai" unicode="&#xf700;" horiz-adv-x="1532" 
d="M689 1518q-69 0 -134.5 -14t-122.5 -46.5t-104 -85t-78 -130.5l-205 94q27 81 84.5 151t141 121.5t189.5 81t229 29.5h742v-185h-268q39 -30 69.5 -72.5t51.5 -93.5t32.5 -109.5t11.5 -120.5q0 -75 -33 -191.5t-93 -265.5l-37.5 -86.5l-52.5 -117.5l-60.5 -133
l-60.5 -133.5l-53 -120l-38 -90.5h-219l-477 924h246l335 -669l26 62l36 84l41.5 96.5l42 99.5l38.5 92.5t30 76.5q14 37 30.5 87.5t30.5 102.5t23 99.5t9 79.5q0 96 -31 167.5t-85 119.5t-127.5 72t-159.5 24z" />
    <glyph glyph-name="exclam" unicode="!" horiz-adv-x="834" 
d="M286 1772v370h265v-370l-68 -1278h-129zM273 302h289v-302h-289v302z" />
    <glyph glyph-name="quotedbl" unicode="&#x22;" horiz-adv-x="1281" 
d="M817 2142h237v-168l-181 -668h-120zM283 2142h240v-168l-182 -668h-122z" />
    <glyph glyph-name="numbersign" unicode="#" horiz-adv-x="2099" 
d="M1321 564h-676l-81 -564h-200l81 564h-291v200h320l87 600h-319v200h348l80 558h200l-80 -558h676l80 558h200l-80 -558h279v-200h-308l-87 -600h307v-200h-336l-81 -564h-200zM674 764h676l87 600h-676z" />
    <glyph glyph-name="dollar" unicode="$" horiz-adv-x="1915" 
d="M891 -4q-95 6 -192.5 26.5t-192.5 59t-185.5 97t-169.5 139.5l153 157q58 -57 126.5 -103.5t144.5 -80.5t156 -55.5t160 -29.5v779q-197 46 -322.5 109.5t-197.5 141t-99.5 167t-27.5 188.5q0 121 52.5 216t142 162.5t206.5 106t246 47.5v230h173v-231q76 -6 148.5 -23
t145 -49.5t147.5 -82.5t156 -121l-142 -160q-64 60 -123 100.5t-114.5 66.5t-109.5 39.5t-108 19.5v-749q196 -43 324.5 -104.5t203.5 -140t105 -171.5t30 -199q0 -85 -25 -157t-70 -131t-106.5 -105.5t-135.5 -79.5t-156.5 -53t-169.5 -26v-287h-173v287zM1498 537
q0 60 -15.5 116t-62 107t-131.5 96.5t-225 85.5v-736q84 8 162.5 32t139 65t96.5 99.5t36 134.5zM474 1607q0 -77 16 -137.5t61.5 -108.5t127 -87t212.5 -72v712q-89 -8 -165 -35t-132 -68.5t-88 -93.5t-32 -110z" />
    <glyph glyph-name="percent" unicode="%" horiz-adv-x="2372" 
d="M1828 2122h212l-1472 -2122h-212zM288 1608q0 -90 28.5 -158t73.5 -113t101 -67.5t111 -22.5t109 22.5t97.5 67.5t70.5 113t27 158t-27 158t-70.5 113t-97.5 67.5t-109 22.5t-111 -22.5t-101 -67.5t-73.5 -113t-28.5 -158zM1094 1608q0 -133 -41 -231.5t-109.5 -164
t-157 -97.5t-184.5 -32t-186 35t-160.5 102t-113 164.5t-42.5 223.5t42.5 223.5t113 164.5t160.5 102t186 35t184.5 -32t157 -97.5t109.5 -164t41 -231.5zM1464 492q0 -90 28.5 -158t73.5 -113t101 -67.5t111 -22.5t109 22.5t97.5 67.5t70.5 113t27 158t-27 158t-70.5 113
t-97.5 67.5t-109 22.5t-111 -22.5t-101 -67.5t-73.5 -113t-28.5 -158zM2270 492q0 -133 -41 -231.5t-109.5 -164t-157 -97.5t-184.5 -32t-186 35t-160.5 102t-113 164.5t-42.5 223.5t42.5 223.5t113 164.5t160.5 102t186 35t184.5 -32t157 -97.5t109.5 -164t41 -231.5z" />
    <glyph glyph-name="ampersand" unicode="&#x26;" horiz-adv-x="2207" 
d="M2004 923q-38 -136 -104 -265.5t-147 -235.5l316 -316l-144 -147l-309 311q-83 -78 -169.5 -133t-176 -89t-181 -49.5t-184.5 -15.5q-84 0 -168.5 18.5t-161.5 54.5t-143.5 88t-115 118.5t-76.5 146.5t-28 173q0 80 25 161t83.5 158.5t154.5 148.5t237 131l-56 57
q-57 68 -94.5 128t-59 114.5t-30 105t-8.5 99.5q0 85 36 168t109 147.5t182.5 104.5t255.5 40t254 -37t179 -100t105.5 -147t34.5 -177t-37.5 -172t-109 -148t-175.5 -129.5t-237 -117.5l546 -548q68 97 118.5 202t96.5 228zM905 176q67 -2 142 14t150 47t146.5 75.5
t131.5 99.5l-616 620q-125 -57 -206 -111.5t-127.5 -109.5t-64.5 -113t-18 -121q0 -96 40 -170.5t105 -125.5t148 -78t169 -27zM676 1684q0 -24 2 -57.5t17 -76t48.5 -95t95.5 -114.5l83 -84q126 45 219 95.5t153.5 105t90 112t29.5 115.5q0 80 -33.5 134t-86.5 87
t-119.5 47t-132.5 14q-84 0 -151.5 -25t-115 -65t-73.5 -90.5t-26 -102.5z" />
    <glyph glyph-name="quotesingle" unicode="'" horiz-adv-x="719" 
d="M283 2142h240v-168l-182 -668h-122z" />
    <glyph glyph-name="parenleft" unicode="(" horiz-adv-x="1392" 
d="M1036 -618q-180 117 -330.5 275.5t-258.5 352.5t-168.5 421t-60.5 482t58.5 482t165 421t255.5 352.5t329 275.5l97 -142q-151 -115 -274.5 -260.5t-211.5 -319.5t-136.5 -377t-48.5 -432q0 -230 50 -432.5t140 -376.5t215 -319.5t276 -260.5l-97 -142v0z" />
    <glyph glyph-name="parenright" unicode=")" horiz-adv-x="1393" 
d="M259 -476q151 115 276 260.5t215 319.5t140 376.5t50 432.5q0 229 -48.5 432t-136.5 377t-211.5 319.5t-274.5 260.5l97 142q180 -117 328.5 -275.5t255 -352.5t165.5 -421t59 -482t-60.5 -482t-168.5 -421t-258.5 -352.5t-330.5 -275.5z" />
    <glyph glyph-name="asterisk" unicode="*" horiz-adv-x="1250" 
d="M575 1590l-295 -234l-102 174l350 146l-350 149l102 174l295 -234l-51 382h202l-52 -383l293 235l104 -174l-353 -149l353 -146l-104 -174l-293 234l52 -385h-202z" />
    <glyph glyph-name="plus" unicode="+" horiz-adv-x="1782" 
d="M785 924h-566v206h566v568h213v-568h565v-206h-565v-569h-213v569z" />
    <glyph glyph-name="comma" unicode="," horiz-adv-x="803" 
d="M205 -273q112 41 166 109t47 164h-182v302h357v-247q0 -90 -22 -159t-65.5 -120t-107 -86t-146.5 -57z" />
    <glyph glyph-name="hyphen" unicode="-" horiz-adv-x="1263" 
d="M212 1136h839v-217h-839v217z" />
    <glyph glyph-name="period" unicode="." horiz-adv-x="752" 
d="M223 312h306v-312h-306v312z" />
    <glyph glyph-name="slash" unicode="/" horiz-adv-x="1583" 
d="M1370 2392h201l-1379 -2752h-201z" />
    <glyph glyph-name="zero" unicode="0" horiz-adv-x="1849" 
d="M925 172q118 0 212.5 61.5t161 176t102 277t35.5 365.5q0 211 -35.5 375.5t-102 277t-161.5 171.5t-213 59t-212.5 -59t-161 -171.5t-102 -277t-35.5 -375.5q0 -203 35.5 -365.5t102 -277t161.5 -176t213 -61.5zM925 -33q-166 0 -303.5 79t-236 221.5t-153 341
t-54.5 437.5q0 247 53.5 449.5t151.5 345.5t235.5 221.5t306.5 78.5t306.5 -78.5t235 -221.5t151 -345.5t53.5 -449.5q0 -159 -24.5 -301t-70.5 -262t-112 -215.5t-149 -162.5t-181 -102.5t-209 -35.5z" />
    <glyph glyph-name="one" unicode="1" horiz-adv-x="1849" 
d="M331 0v187h555v1696l-480 -207l-66 190l587 256h182v-1935h537v-187h-1315z" />
    <glyph glyph-name="two" unicode="2" horiz-adv-x="1849" 
d="M184 196l793 675q102 88 182.5 164t136 151.5t85 157t29.5 180.5q0 94 -37.5 168.5t-102 125.5t-150 78t-181.5 27q-181 0 -326.5 -77t-247.5 -250l-168 117q53 102 130.5 178.5t173 127.5t206.5 77t232 26q156 0 286.5 -43.5t224.5 -122.5t146 -189t52 -243
q0 -105 -36.5 -207t-105.5 -203t-168.5 -202t-224.5 -203l-645 -507h1175v-202h-1459v196z" />
    <glyph glyph-name="three" unicode="3" horiz-adv-x="1849" 
d="M875 -33q-128 0 -240 31t-206.5 83t-172 119t-135.5 139l156 160q46 -58 105.5 -115.5t134 -103.5t164 -75t194.5 -29q102 0 193 29t159.5 85t108 137.5t39.5 186.5q0 94 -43.5 169.5t-125 129t-198 82.5t-261.5 29h-80l-42 160l663 709h-1001v199h1311v-160l-683 -723
q93 -5 180 -28t164 -61t140.5 -90t109.5 -116.5t71.5 -140t25.5 -159.5q0 -128 -49 -245t-143 -206.5t-230 -142.5t-309 -53z" />
    <glyph glyph-name="four" unicode="4" horiz-adv-x="1851" 
d="M1267 451h-1162l-43 167l1221 1505h200v-1481h301v-191h-301v-451h-216v451zM1267 642v1142l-920 -1142h920z" />
    <glyph glyph-name="five" unicode="5" horiz-adv-x="1849" 
d="M890 -23q-112 0 -215 18t-194.5 56.5t-171 97.5t-145.5 141l128 178q69 -88 143 -143t150.5 -86t154 -42t153.5 -11q101 0 195 34t166.5 96t116 150.5t43.5 196.5q0 113 -39 199t-106.5 144t-158.5 87.5t-195 29.5q-74 0 -139 -7.5t-124 -21.5t-115 -34.5t-113 -47.5
l-146 100l53 980h1222v-203h-1026l-35 -649q43 19 96.5 35t111.5 28t117 19t112 7q139 0 268 -43t228.5 -126.5t159 -206t59.5 -281.5q0 -155 -61.5 -282.5t-165.5 -219.5t-240.5 -142.5t-286.5 -50.5z" />
    <glyph glyph-name="six" unicode="6" horiz-adv-x="1849" 
d="M946 -33q-99 0 -188 20t-164 54t-134.5 79t-99.5 96q-59 75 -98.5 159t-63.5 178.5t-34 200t-10 222.5q0 273 65.5 487.5t180 363t271 226.5t338.5 78q76 0 149 -12t146 -40t146 -74t148 -114l-123 -164q-62 56 -121.5 93.5t-118 60.5t-117 33t-118.5 10
q-82 0 -159 -29.5t-145 -84t-124 -132.5t-97 -175t-63.5 -210.5t-23.5 -239.5q34 58 96.5 111.5t142 94t169.5 65t180 24.5q153 0 284.5 -46.5t228.5 -133.5t152 -211t55 -278q0 -111 -29.5 -206.5t-81.5 -175t-123 -141t-154.5 -103.5t-175.5 -64t-186 -22zM949 159
q100 0 193.5 35t165.5 101.5t115 163.5t43 221q0 105 -41.5 191.5t-112.5 148.5t-165.5 96.5t-200.5 34.5q-99 0 -192.5 -38t-166.5 -103.5t-117 -153.5t-44 -189q0 -107 38.5 -199.5t108 -161t165.5 -108t211 -39.5z" />
    <glyph glyph-name="seven" unicode="7" horiz-adv-x="1849" 
d="M1397 1889h-1192v203h1444v-163l-1052 -1929h-257z" />
    <glyph glyph-name="eight" unicode="8" horiz-adv-x="1849" 
d="M923 -30q-166 0 -310.5 42t-251 119t-168 185t-61.5 240q0 99 30 182t83.5 150.5t128 119.5t163.5 89q-67 33 -129 76.5t-110 101.5t-76.5 132t-28.5 168q0 125 59.5 226t160 172.5t232.5 110t278 38.5q147 0 280 -38t233 -109.5t159 -173.5t59 -231q0 -91 -28 -164
t-75.5 -130.5t-109 -101.5t-128.5 -77q90 -34 164.5 -86.5t128 -121t82.5 -152.5t29 -181q0 -134 -61 -242.5t-168 -185t-252 -117.5t-313 -41zM923 1182q62 0 124.5 13t119 37t105.5 58.5t84.5 77.5t56 93.5t20.5 107.5q0 84 -40 151.5t-109 115.5t-162 73.5t-199 25.5
q-105 0 -197 -25.5t-161 -73t-108.5 -115.5t-39.5 -153t44.5 -156t116 -122t162 -79.5t183.5 -28.5zM923 156q128 0 232.5 30.5t179 84t115 126.5t40.5 158q0 93 -45 173t-122 139.5t-180 93t-220 33.5q-116 0 -219 -33.5t-179.5 -93t-121 -139.5t-44.5 -173
q0 -84 40.5 -157t114.5 -126.5t178 -84.5t231 -31z" />
    <glyph glyph-name="nine" unicode="9" horiz-adv-x="1849" 
d="M899 2131q197 0 342.5 -63t252.5 -199q59 -75 97 -157.5t60.5 -174.5t31 -195t8.5 -220q0 -184 -29.5 -341.5t-84 -285.5t-132 -226.5t-172.5 -165.5t-205.5 -101.5t-231.5 -34.5q-76 0 -149.5 12t-146 40t-145.5 74t-148 114l123 164q39 -44 95.5 -80.5t121 -62.5
t131.5 -40t127 -14q124 0 234 59.5t191.5 172.5t129 276t47.5 371q-47 -68 -109.5 -124t-136.5 -95.5t-158 -61.5t-174 -22q-153 0 -284.5 46.5t-228.5 133.5t-152 210.5t-55 278.5q0 111 29.5 206.5t81.5 175t123 141t154.5 103.5t175.5 64t186 22zM896 1939
q-100 0 -193.5 -35t-165.5 -101.5t-115 -163.5t-43 -221q0 -105 41.5 -191.5t112.5 -148.5t165.5 -96.5t200.5 -34.5q99 0 192.5 34.5t166.5 98t117 152.5t44 199q0 107 -38.5 199.5t-108 161t-165.5 108t-211 39.5z" />
    <glyph glyph-name="colon" unicode=":" horiz-adv-x="883" 
d="M289 312h306v-312h-306v312zM289 1566h306v-312h-306v312z" />
    <glyph glyph-name="semicolon" unicode=";" horiz-adv-x="912" 
d="M319 1566h306v-312h-306v312zM236 -273q112 41 166 109t47 164h-182v302h357v-247q0 -90 -22 -159t-65.5 -120t-107 -86t-146.5 -57z" />
    <glyph glyph-name="less" unicode="&#x3c;" horiz-adv-x="1575" 
d="M200 938v178l1175 641v-231l-948 -496l948 -502v-231z" />
    <glyph glyph-name="equal" unicode="=" horiz-adv-x="1669" 
d="M240 1181v214h1188v-214h-1188zM240 659v214h1188v-214h-1188z" />
    <glyph glyph-name="greater" unicode="&#x3e;" horiz-adv-x="1575" 
d="M200 297v231l948 502l-948 496v231l1175 -641v-178z" />
    <glyph glyph-name="question" unicode="?" horiz-adv-x="1676" 
d="M663 1000q-3 39 12.5 56.5t36.5 20.5q136 1 244 38.5t183 101t115 148t40 180.5q0 74 -28.5 144t-86.5 125t-144.5 88t-203.5 33q-99 0 -182.5 -25t-152 -65t-121.5 -90t-90 -100l-144 137q48 67 119.5 129.5t160.5 110.5t191.5 77t212.5 29q182 0 314.5 -45
t218.5 -124.5t127 -188t41 -235.5q0 -89 -23.5 -170.5t-66.5 -151.5t-102.5 -126.5t-131.5 -96.5t-155 -62t-171 -23l-30 -431h-145zM621 302h289v-302h-289v302z" />
    <glyph glyph-name="at" unicode="@" horiz-adv-x="2487" 
d="M1275 -65q-162 0 -309 39.5t-272.5 112t-226.5 173.5t-172.5 223.5t-110 263t-38.5 291.5t39 292.5t110.5 264.5t172 224.5t223.5 174.5t265.5 113t297.5 40q185 0 337 -40t271 -110t207 -165t146 -204.5t86 -228.5t28 -238q0 -106 -24 -195.5t-64.5 -161.5t-94 -126
t-112.5 -90.5t-120.5 -55t-117.5 -18.5q-44 0 -84 13t-73.5 39t-59.5 64t-41 89q-37 -41 -83 -78t-99.5 -65t-114 -45t-126.5 -17q-96 0 -180.5 33.5t-147.5 95.5t-100 149t-37 194q0 91 24 174t65.5 154t98.5 128.5t123 98.5t138.5 63t145.5 22q80 0 135 -15t94 -40.5
t66 -59t50 -71.5l22 173l226 -26l-103 -607q-9 -52 -13 -90.5t-4 -56.5q0 -86 26 -123.5t67 -37.5q58 0 114.5 37t101.5 101t72.5 151t27.5 186q0 168 -56.5 315t-167 256.5t-273.5 172.5t-376 63q-131 0 -249 -33t-219 -93t-182.5 -143.5t-139.5 -185.5t-89 -218.5
t-31 -242.5t31 -242.5t89 -217.5t140.5 -184t186 -142t225 -91.5t257.5 -32.5q85 0 164 11.5t154.5 39t148 73.5t143.5 115l115 -162q-166 -134 -345.5 -202t-377.5 -68zM1152 708q76 0 145 35.5t120.5 94.5t82 136.5t30.5 161.5q0 64 -22 118t-59.5 93.5t-87 61.5
t-104.5 22q-75 0 -145 -33t-124 -91.5t-86.5 -137.5t-32.5 -170q0 -69 21 -123.5t58.5 -91.5t89.5 -56.5t114 -19.5z" />
    <glyph glyph-name="A" unicode="A" horiz-adv-x="2334" 
d="M2239 0h-247l-263 590h-1124l-263 -590h-247l954 2134h236zM697 796h940l-470 1053z" />
    <glyph glyph-name="B" unicode="B" horiz-adv-x="2104" 
d="M275 2122h918q70 0 137.5 -7t130.5 -23t119.5 -42.5t104.5 -65.5q88 -73 135 -175t47 -244q0 -99 -28 -173t-75.5 -128.5t-108.5 -92.5t-127 -64q94 -26 173 -71t136 -110.5t89 -153.5t32 -199q0 -143 -55.5 -250.5t-164.5 -181.5q-99 -67 -235 -104t-295 -37h-933v2122z
M1627 1565q0 84 -30 149.5t-87.5 110t-140.5 68t-188 23.5h-669v-736h665q103 0 186.5 25.5t142 74.5t90 121t31.5 164zM1717 573q0 91 -33 166t-100 128.5t-169.5 83t-241.5 29.5h-661v-774h706q114 0 206.5 23.5t157.5 69.5t100 114.5t35 159.5z" />
    <glyph glyph-name="C" unicode="C" horiz-adv-x="2239" 
d="M1250 -36q-153 0 -290.5 38t-254.5 107.5t-211.5 168t-160.5 219.5t-101.5 261.5t-35.5 294.5q0 150 36 289.5t103.5 262t163 223t215 173t259.5 112t296 39.5q127 0 239.5 -22t214 -66t194.5 -111.5t181 -158.5l-157 -165q-79 80 -158.5 137.5t-162.5 94t-171 53.5
t-183 17q-117 0 -223.5 -30.5t-198 -87t-165.5 -136t-126 -177t-80.5 -211t-28.5 -236.5t28 -235t79 -208.5t124 -175t163.5 -134t195.5 -85.5t222 -30q394 0 671 337l189 -153q-109 -114 -209 -191.5t-202 -125t-213 -68t-242 -20.5z" />
    <glyph glyph-name="D" unicode="D" horiz-adv-x="2275" 
d="M275 2122h790q208 0 387 -63.5t311 -182.5q152 -137 235 -340t83 -463q0 -150 -29 -282t-82 -244.5t-129 -203.5t-170 -159q-125 -90 -277 -137t-329 -47h-790v2122zM512 1913v-1704h547q146 0 265 40.5t217 120.5q67 55 122 127.5t94 161t60.5 191.5t21.5 220
q0 204 -67.5 370t-188.5 279q-100 93 -231.5 143.5t-292.5 50.5h-547z" />
    <glyph glyph-name="E" unicode="E" horiz-adv-x="1951" 
d="M275 2122h1488v-209h-1251v-720h1148v-206h-1148v-778h1272v-209h-1509v2122z" />
    <glyph glyph-name="F" unicode="F" horiz-adv-x="1783" 
d="M275 2122h1413v-209h-1176v-750h1060v-209h-1060v-954h-237v2122z" />
    <glyph glyph-name="G" unicode="G" horiz-adv-x="2247" 
d="M1245 -30q-145 0 -279.5 35.5t-251.5 102.5t-213 164t-165 219t-106.5 268t-37.5 311q0 154 37.5 294t106 260t165 217.5t215 166.5t255.5 106.5t287 37.5q139 0 248.5 -19.5t200 -55.5t168 -86.5t154.5 -111.5l-152 -167q-78 60 -148 103t-142 70.5t-151.5 41
t-177.5 13.5q-109 0 -212 -29.5t-194 -84t-167 -132t-130.5 -174t-85 -210.5t-30.5 -240q0 -137 30.5 -256.5t85 -219t130 -177t166 -131.5t193 -82t210.5 -28q74 0 156.5 12t163 36t154.5 61t133 87v572h-629v204h857v-890q-101 -80 -203 -134.5t-206.5 -89t-212.5 -49.5
t-222 -15z" />
    <glyph glyph-name="H" unicode="H" horiz-adv-x="2239" 
d="M275 2122h237v-929h1215v929h237v-2122h-237v981h-1215v-981h-237v2122z" />
    <glyph glyph-name="I" unicode="I" horiz-adv-x="839" 
d="M301 2122h237v-2122h-237v2122z" />
    <glyph glyph-name="J" unicode="J" horiz-adv-x="1614" 
d="M675 -28q-91 0 -180.5 25.5t-169.5 71.5t-147 110t-113 140l172 142q38 -71 88.5 -123.5t108 -87.5t119.5 -52.5t123 -17.5q97 0 176 35.5t135 99.5t86 152.5t30 193.5v1460h237v-1460q0 -164 -51.5 -292.5t-141 -216.5t-211 -134t-261.5 -46z" />
    <glyph glyph-name="K" unicode="K" horiz-adv-x="2098" 
d="M925 1025l-413 -421v-604h-237v2122h237v-1201l1173 1201h315l-911 -930l953 -1192h-285z" />
    <glyph glyph-name="L" unicode="L" horiz-adv-x="1710" 
d="M275 2122h237v-1913h1175v-209h-1412v2122z" />
    <glyph glyph-name="M" unicode="M" horiz-adv-x="2567" 
d="M275 2122h226l781 -1117l784 1117h226v-2122h-238v1742l-770 -1084l-778 1084v-1742h-231v2122z" />
    <glyph glyph-name="N" unicode="N" horiz-adv-x="2308" 
d="M275 2122h205l1319 -1701v1701h234v-2122h-181l-1346 1739v-1739h-231v2122z" />
    <glyph glyph-name="O" unicode="O" horiz-adv-x="2577" 
d="M190 1062q0 151 39 291.5t111 262.5t172 222t222 172t262 111t292 39q151 0 291.5 -39t262.5 -111t222 -172t172 -222t111 -262.5t39 -291.5t-39 -291.5t-111 -262.5t-172 -222.5t-222 -172t-262.5 -110.5t-291.5 -39t-291.5 39t-262.5 111t-222.5 172t-171.5 222
t-110.5 262t-39.5 292zM424 1062q0 -122 31 -234.5t87 -211t134.5 -179t174.5 -138.5t206 -89.5t229 -31.5t229.5 31.5t206.5 89.5t174.5 138.5t134.5 179t87 211t31 234.5q0 121 -31 234t-87 211t-134.5 178.5t-174.5 138.5t-206.5 89.5t-229.5 31.5t-229 -31.5t-206 -89.5
t-174.5 -138.5t-134.5 -178.5t-87 -211t-31 -234z" />
    <glyph glyph-name="P" unicode="P" horiz-adv-x="1979" 
d="M275 2122h819q169 0 307 -44.5t235.5 -129.5t150.5 -209t53 -283q0 -168 -60 -296t-164 -214.5t-245.5 -131t-303.5 -45.5h-555v-769h-237v2122zM1073 975q124 0 221.5 33.5t165.5 95t104 149.5t36 197q0 117 -36 204t-103 144.5t-163 86t-216 28.5h-570v-938h561z" />
    <glyph glyph-name="Q" unicode="Q" horiz-adv-x="2577" 
d="M190 1062q0 151 39 291.5t111 262.5t172 222t222 172t262 111t292 39q151 0 291.5 -39t262.5 -111t222 -172t172 -222t111 -262.5t39 -291.5q0 -197 -64 -371.5t-179 -317.5l295 -258l-164 -179l-303 266q-142 -112 -315 -175t-368 -63q-151 0 -291.5 39t-262.5 111
t-222.5 172t-171.5 222t-110.5 262t-39.5 292zM424 1062q0 -122 31 -234.5t87 -211t134.5 -179t174.5 -138.5t206 -89.5t229 -31.5q145 0 275 46t239 128l-375 330l161 179l384 -337q85 112 132 249t47 289q0 121 -31 234t-87 211t-134.5 178.5t-174.5 138.5t-206.5 89.5
t-229.5 31.5t-229 -31.5t-206 -89.5t-174.5 -138.5t-134.5 -178.5t-87 -211t-31 -234z" />
    <glyph glyph-name="R" unicode="R" horiz-adv-x="2168" 
d="M275 2122h884q168 0 310 -38.5t245 -115.5t161 -193t58 -271q0 -128 -45.5 -236t-122.5 -189.5t-177.5 -133.5t-211.5 -68l634 -877h-273l-604 842h-621v-842h-237v2122zM1111 1049q128 0 236 29.5t186 86.5t121.5 140t43.5 190q0 97 -35.5 174.5t-105.5 131.5t-173.5 83
t-239.5 29h-632v-864h599z" />
    <glyph glyph-name="S" unicode="S" horiz-adv-x="1839" 
d="M961 -30q-102 0 -204.5 16t-205.5 55.5t-207 107t-210 170.5l153 157q73 -70 154 -125t167.5 -93.5t176 -58.5t179.5 -20q116 0 210.5 26.5t162 75t104.5 118t37 155.5q0 30 -3 63.5t-18.5 69t-48.5 71.5t-93 71.5t-151.5 68.5t-224.5 63q-150 33 -261 73.5t-190.5 88
t-130.5 101.5t-80.5 114t-41 126t-11.5 137q0 123 55 224.5t151.5 174t228.5 112.5t286 40q103 0 197 -16.5t182.5 -50.5t174 -86.5t171.5 -124.5l-142 -173q-49 44 -112 87t-138 77.5t-161 56t-181 21.5q-91 0 -176 -22.5t-151 -64.5t-105.5 -102.5t-39.5 -136.5
q0 -52 7.5 -97.5t29 -86.5t60.5 -77.5t102 -68.5t153 -61t214 -55q147 -31 255.5 -68.5t185 -82t125 -96t76 -110t37.5 -124t10 -138.5q0 -122 -55.5 -228t-155.5 -184.5t-239.5 -124t-307.5 -45.5z" />
    <glyph glyph-name="T" unicode="T" horiz-adv-x="1770" 
d="M764 1909h-684v213h1609v-213h-687v-1909h-238v1909z" />
    <glyph glyph-name="U" unicode="U" horiz-adv-x="2242" 
d="M1121 -33q-110 0 -217.5 23t-204.5 69t-179 114t-142 157t-94 199.5t-34 241.5v1351h237v-1345q0 -146 53.5 -258.5t142 -188.5t202.5 -115t235 -39q79 0 156.5 16.5t148 49.5t130.5 82.5t104.5 115.5t69.5 148t25 180v1354h238v-1339q0 -134 -33.5 -246.5t-93 -203
t-141 -159t-178.5 -114.5t-205 -69.5t-220 -23.5z" />
    <glyph glyph-name="V" unicode="V" horiz-adv-x="2220" 
d="M120 2122h261l732 -1792l737 1792h251l-885 -2137h-209z" />
    <glyph glyph-name="W" unicode="W" horiz-adv-x="3285" 
d="M120 2122h255l581 -1749l589 1748h204l592 -1748l580 1749h243l-723 -2137h-200l-597 1767l-597 -1767h-200z" />
    <glyph glyph-name="X" unicode="X" horiz-adv-x="1955" 
d="M339 0h-294l788 1105l-737 1017h293l587 -844l590 844h293l-737 -1017l788 -1105h-294l-637 904z" />
    <glyph glyph-name="Y" unicode="Y" horiz-adv-x="2121" 
d="M1765 2122h281l-863 -1267v-855h-240v855l-863 1267h281l702 -1063z" />
    <glyph glyph-name="Z" unicode="Z" horiz-adv-x="1944" 
d="M166 155l1373 1771h-1330v196h1623v-155l-1371 -1771h1371v-196h-1666v155z" />
    <glyph glyph-name="bracketleft" unicode="[" horiz-adv-x="1348" 
d="M306 2375h846v-170h-629v-2605h629v-170h-846v2945z" />
    <glyph glyph-name="backslash" unicode="\" horiz-adv-x="1622" 
d="M31 2392h210l1382 -2752h-210z" />
    <glyph glyph-name="bracketright" unicode="]" horiz-adv-x="1348" 
d="M1041 -570h-846v170h629v2605h-629v170h846v-2945z" />
    <glyph glyph-name="asciicircum" unicode="^" horiz-adv-x="1461" 
d="M644 2143h173l454 -619h-211l-331 468l-334 -468h-205z" />
    <glyph glyph-name="underscore" unicode="_" horiz-adv-x="1943" 
d="M34 -279h1876v-183h-1876v183z" />
    <glyph glyph-name="grave" unicode="`" horiz-adv-x="1596" 
d="M526 2085l175 162l384 -446l-114 -94z" />
    <glyph glyph-name="a" unicode="a" horiz-adv-x="1752" 
d="M776 -23q-125 0 -236.5 33.5t-195.5 98.5t-133.5 160.5t-49.5 219.5q0 118 52 211t142 157t210.5 98t257.5 34q74 0 147 -6.5t138 -17t119 -22.5t91 -24v100q0 96 -27.5 169t-86.5 122.5t-152.5 74.5t-225.5 25q-59 0 -126.5 -10t-133 -26.5t-124 -37t-99.5 -42.5
l-80 174q56 27 127.5 51.5t149.5 42.5t157.5 28.5t152.5 10.5q190 0 322.5 -40t210.5 -118q73 -73 113 -176.5t40 -243.5v-1023h-218l2 190q-94 -109 -233.5 -161t-310.5 -52zM796 159q111 0 207 28.5t166.5 80t110.5 123t40 157.5v202q-30 13 -84 25.5t-118.5 22.5
t-134.5 16t-133 6q-59 0 -117 -10.5t-110 -30.5t-96.5 -49t-77 -65t-51 -79t-18.5 -92q0 -83 38.5 -145.5t99 -104.5t134 -63.5t144.5 -21.5z" />
    <glyph glyph-name="b" unicode="b" horiz-adv-x="1942" 
d="M1087 -20q-95 0 -186.5 23.5t-171.5 66t-144.5 102.5t-103.5 134v-306h-221v2288h221v-1028q55 91 123.5 154.5t147 103.5t164.5 58.5t176 18.5q97 0 189 -23t173 -69t149 -114t117 -157.5t76 -200t27 -241.5q0 -136 -31.5 -249t-85.5 -203t-126.5 -157.5t-154.5 -112
t-168.5 -66.5t-169.5 -22zM1044 166q115 0 216 40t176 118t118 193t43 266q0 144 -43 259.5t-119 196t-178.5 123.5t-221.5 43q-117 0 -220 -47t-179 -130.5t-120 -198.5t-44 -252q0 -140 49 -253t129.5 -192.5t183.5 -122.5t210 -43z" />
    <glyph glyph-name="c" unicode="c" horiz-adv-x="1630" 
d="M927 -23q-99 0 -197.5 23.5t-188 69.5t-166.5 114.5t-133.5 158t-89 200t-32.5 241.5q0 120 30 227t83.5 197.5t128.5 163t165.5 123t193.5 77.5t213 27q100 0 185.5 -20t160 -55.5t138 -85t120.5 -107.5l-153 -138q-49 55 -100.5 95t-107.5 66.5t-118 39t-132 12.5
t-141 -18.5t-135.5 -54.5t-120.5 -89t-97.5 -121.5t-65 -152.5t-23.5 -181q0 -107 24.5 -194.5t67 -156.5t99.5 -120t121.5 -85t133.5 -50.5t136 -16.5q128 0 247 53t218 156l142 -143q-118 -125 -273.5 -190t-332.5 -65z" />
    <glyph glyph-name="d" unicode="d" horiz-adv-x="1942" 
d="M856 -20q-83 0 -169.5 22t-168.5 66.5t-154.5 112t-126.5 157.5t-85.5 203t-31.5 249q0 196 59.5 346.5t160.5 252.5t233 154t278 52q90 0 176 -18.5t164.5 -58.5t147 -103.5t123.5 -154.5v1028h221v-2288h-221v306q-39 -74 -103.5 -134t-144.5 -102.5t-172 -66
t-186 -23.5zM899 166q107 0 210 43t183.5 122.5t129.5 192.5t49 253q0 137 -44 252t-120 198.5t-179 130.5t-220 47q-119 0 -221.5 -43t-178.5 -123.5t-119 -196t-43 -259.5q0 -151 43 -266t118 -193t176 -118t216 -40z" />
    <glyph glyph-name="e" unicode="e" horiz-adv-x="1728" 
d="M922 -33q-96 0 -193 25t-186.5 73.5t-166.5 119.5t-134 162.5t-89.5 202.5t-32.5 240q0 126 29.5 235t81.5 199t124 160t157.5 117.5t181 72.5t195.5 25q160 0 292.5 -56.5t227 -159t146.5 -245.5t52 -316v-22v-30t-0.5 -31.5t-1.5 -25.5h-1255q0 -89 25.5 -165
t68.5 -138.5t100 -110.5t121.5 -81t132.5 -50t133 -17q64 0 131.5 16t131.5 46.5t122 75.5t103 104l142 -128q-65 -83 -139.5 -139.5t-156 -92t-168.5 -51t-175 -15.5zM1387 883q-6 112 -40 209t-96.5 168.5t-153 112t-209.5 40.5q-88 0 -162 -24.5t-134 -66t-105 -95.5
t-75.5 -113t-46 -118.5t-15.5 -112.5h1037z" />
    <glyph glyph-name="f" unicode="f" horiz-adv-x="1081" 
d="M349 1374h-296v191h296v256q0 124 31.5 213.5t91.5 145.5q34 33 73.5 55.5t80.5 37t82.5 21t79.5 6.5q52 0 97 -7.5t82.5 -18.5t67 -25.5t50.5 -27.5l-54 -159l-43.5 20t-51.5 21t-62 16.5t-76 6.5q-118 0 -173.5 -84t-55.5 -234v-243h473v-191h-469v-1374h-224v1374z
" />
    <glyph glyph-name="g" unicode="g" horiz-adv-x="1963" 
d="M895 -531q-80 0 -171 14t-183.5 42t-181.5 69.5t-164 97.5l99 164q134 -103 288 -154.5t310 -51.5q124 0 232 33t187.5 97.5t125 160.5t45.5 221v237q-40 -60 -100 -115t-138.5 -97t-174.5 -67t-207 -25q-80 0 -166.5 20.5t-169 62t-156.5 103t-129.5 143.5t-88 184
t-32.5 224q0 130 32 236t87.5 189.5t129.5 144.5t158 101.5t173 60t175 19.5q196 0 346.5 -82t260.5 -229v291h221v-1416q0 -116 -31.5 -211.5t-87 -170.5t-132 -131t-166 -92.5t-189.5 -54.5t-202 -18zM893 282q68 0 139 16t137 47.5t124 78t101.5 108t68.5 138t25 167.5
q0 86 -25.5 161.5t-69.5 137.5t-102.5 110.5t-125 82t-136.5 51t-136 17.5q-68 0 -134.5 -16.5t-127.5 -48.5t-113 -80t-90 -111t-60 -140.5t-22 -169.5t23.5 -169t64 -138t94.5 -106.5t114.5 -75.5t125 -45t125.5 -15z" />
    <glyph glyph-name="h" unicode="h" horiz-adv-x="1862" 
d="M260 2288h221v-990q27 48 79 101.5t122 97.5t152.5 73t171.5 29q133 0 246 -41t195.5 -122.5t128.5 -204.5t46 -288v-943h-220v943q0 106 -31 191t-87.5 145t-135.5 92t-175 32q-99 0 -188.5 -38t-157 -112.5t-107 -185t-39.5 -255.5v-812h-221v2288z" />
    <glyph glyph-name="i" unicode="i" horiz-adv-x="783" 
d="M268 2161h247v-258h-247v258zM282 1565h220v-1565h-220v1565z" />
    <glyph glyph-name="j" unicode="j" horiz-adv-x="849" 
d="M335 2161h245v-258h-245v258zM183 -564q-19 0 -43 2t-49 6.5t-50 11.5t-46 18l49 160q23 -10 52.5 -15t50.5 -5q45 0 82.5 15.5t64 45t41 72t14.5 95.5v1722h218v-1737q0 -94 -26.5 -167t-76 -122.5t-120.5 -75.5t-161 -26z" />
    <glyph glyph-name="k" unicode="k" horiz-adv-x="1780" 
d="M263 2288h221v-1568l843 844h291l-667 -667l737 -897h-267l-615 750l-322 -321v-429h-221v2288z" />
    <glyph glyph-name="l" unicode="l" horiz-adv-x="785" 
d="M282 2288h221v-2288h-221v2288z" />
    <glyph glyph-name="m" unicode="m" horiz-adv-x="2848" 
d="M260 1563h221v-285q33 60 84.5 117.5t116.5 102.5t142.5 73t162.5 28q183 0 302.5 -75t191.5 -232q40 70 98.5 126.5t132 96.5t161 62t186.5 22q139 0 242 -50t171 -137t102 -205.5t34 -255.5v-951h-221v933q0 108 -29 195t-81.5 148.5t-124.5 94.5t-158 33
q-99 0 -181.5 -35t-142.5 -97.5t-93 -148.5t-33 -189v-934h-220v925q0 106 -28.5 194t-80.5 151.5t-123.5 98.5t-158.5 35q-64 0 -122 -21t-108.5 -57t-91.5 -84t-69.5 -103t-44.5 -113.5t-16 -114.5v-911h-221v1563z" />
    <glyph glyph-name="n" unicode="n" horiz-adv-x="1862" 
d="M260 1563h221v-265q27 48 79 101.5t122 97.5t152.5 73t171.5 29q133 0 246 -41t195.5 -122.5t128.5 -204.5t46 -288v-943h-220v943q0 106 -31 191t-87.5 145t-135.5 92t-175 32q-99 0 -188.5 -38t-157 -112.5t-107 -185t-39.5 -255.5v-812h-221v1563z" />
    <glyph glyph-name="o" unicode="o" horiz-adv-x="1872" 
d="M121 784q0 112 29 216.5t82 195t127.5 165t165 127.5t194.5 82t217 29q112 0 216.5 -29t195 -82t165 -127.5t127.5 -165t82 -195t29 -216.5t-29 -216.5t-82 -195t-127.5 -165t-165 -127.5t-195 -82t-216.5 -29t-216.5 29t-195 82t-165 127.5t-127.5 165t-82 194.5
t-29 217zM349 785q0 -85 21 -164.5t59.5 -148.5t92.5 -125.5t120 -97t141 -62.5t157 -22q122 0 229.5 49t188 133t127 197t46.5 241t-46.5 240.5t-127 196.5t-188 133t-229.5 49q-81 0 -156.5 -22t-141.5 -62.5t-120 -97t-92.5 -125.5t-59.5 -148t-21 -164z" />
    <glyph glyph-name="p" unicode="p" horiz-adv-x="1944" 
d="M1087 -20q-95 0 -186.5 23.5t-171.5 66t-144.5 102.5t-103.5 134v-860h-221v2117h221v-303q55 91 123.5 154.5t147 103.5t164.5 58.5t176 18.5q97 0 189 -23t173 -69t149 -114t117 -157.5t76 -200t27 -241.5q0 -136 -31.5 -249t-85.5 -203t-126.5 -157.5t-154.5 -112
t-168.5 -66.5t-169.5 -22zM1044 166q115 0 216 40t176 118t118 193t43 266q0 144 -43 259.5t-119 196t-178.5 123.5t-221.5 43q-117 0 -220 -47t-179 -130.5t-120 -198.5t-44 -252q0 -140 49 -253t129.5 -192.5t183.5 -122.5t210 -43z" />
    <glyph glyph-name="q" unicode="q" horiz-adv-x="1943" 
d="M856 -20q-83 0 -169.5 22t-168.5 66.5t-154.5 112t-126.5 157.5t-85.5 203t-31.5 249q0 196 59.5 346.5t160.5 252.5t233 154t278 52q90 0 176 -18.5t164.5 -58.5t147 -103.5t123.5 -154.5v303h221v-2117h-221v860q-39 -74 -103.5 -134t-144.5 -102.5t-172 -66
t-186 -23.5zM899 166q107 0 210 43t183.5 122.5t129.5 192.5t49 253q0 137 -44 252t-120 198.5t-179 130.5t-220 47q-119 0 -221.5 -43t-178.5 -123.5t-119 -196t-43 -259.5q0 -151 43 -266t118 -193t176 -118t216 -40z" />
    <glyph glyph-name="r" unicode="r" horiz-adv-x="1207" 
d="M1022 1346q-68 0 -134 -27t-126 -74.5t-111 -111.5t-88 -137.5t-58 -153.5t-21 -159v-685h-221v1567h221v-415q17 37 45.5 83.5t67 95t88 94t108 81.5t127 58t145.5 22q28 0 55.5 -3t54.5 -8l-48 -242q-51 15 -105 15z" />
    <glyph glyph-name="s" unicode="s" horiz-adv-x="1393" 
d="M722 -17q-73 0 -150 10.5t-156.5 38t-160 75.5t-159.5 123l121 144q59 -57 124 -96.5t131 -65t131.5 -37t124.5 -11.5q64 0 127.5 19t113.5 53t81 81.5t31 104.5q0 64 -24.5 109t-74.5 78t-125.5 57t-177.5 47q-251 56 -374.5 168t-123.5 289q0 100 46 178t122.5 132
t175 82t204.5 28q149 0 281.5 -44.5t254.5 -141.5l-105 -151q-33 31 -81 60t-105 51t-120 35t-125 13q-69 0 -129.5 -16t-106 -45.5t-72 -70t-26.5 -89.5q0 -50 18 -92.5t63 -78.5t121.5 -66.5t193.5 -56.5q124 -28 218.5 -69t158 -97t95.5 -128.5t32 -164.5
q0 -70 -22.5 -131.5t-62.5 -112t-94.5 -90t-118 -66.5t-134 -41t-141.5 -14z" />
    <glyph glyph-name="t" unicode="t" horiz-adv-x="1132" 
d="M707 -16q-81 0 -150 21.5t-118.5 69t-77.5 122t-28 180.5v994h-215v194h215v525h220v-525h491v-194h-491v-978q0 -63 13.5 -105t39 -67.5t61 -36t79.5 -10.5q30 0 64.5 5.5t69.5 14.5t68 21t60 25l58 -172q-24 -14 -64 -29t-88.5 -27t-102 -20t-104.5 -8z" />
    <glyph glyph-name="u" unicode="u" horiz-adv-x="1870" 
d="M838 -36q-124 0 -233 46.5t-190 131t-128 203.5t-47 263v957h222v-954q0 -101 31 -184.5t87.5 -143.5t135.5 -93.5t176 -33.5q99 0 189.5 36t159 103t109.5 162.5t41 215.5v892h220v-1565h-220v278q-33 -59 -86 -115.5t-123.5 -100.5t-157 -71t-186.5 -27z" />
    <glyph glyph-name="v" unicode="v" horiz-adv-x="1720" 
d="M762 -2l-682 1567h238l542 -1280l542 1280h238l-682 -1567h-196z" />
    <glyph glyph-name="w" unicode="w" horiz-adv-x="2507" 
d="M1252 1252l-431 -1254h-198l-543 1565h233l417 -1262l440 1264h167l440 -1264l417 1262h233l-543 -1565h-198l-431 1254h-3z" />
    <glyph glyph-name="x" unicode="x" horiz-adv-x="1609" 
d="M803 658l-481 -658h-280l633 810l-592 754h278l443 -606l443 606h278l-592 -754l633 -810h-280l-481 658h-2z" />
    <glyph glyph-name="y" unicode="y" horiz-adv-x="1728" 
d="M1414 1565h233l-717 -1766q-41 -102 -99 -166.5t-125.5 -101t-140.5 -50.5t-144 -14q-30 0 -72 7t-85.5 17.5t-82.5 24t-63 27.5l72 169q21 -10 51 -20.5t62.5 -18.5t64 -13.5t57.5 -5.5q13 0 41.5 1t64.5 11t75.5 33t74.5 68q15 19 30 46t30 58.5t28.5 64.5l25.5 64
l-715 1565h243l577 -1322z" />
    <glyph glyph-name="z" unicode="z" horiz-adv-x="1519" 
d="M76 149l1053 1226h-1000v190h1292v-148l-1053 -1227h1050v-190h-1342v149z" />
    <glyph glyph-name="braceleft" unicode="{" horiz-adv-x="1488" 
d="M1292 -634q-180 28 -318.5 93t-233 152.5t-143 190t-48.5 206.5q0 24 1 61.5t3 81l4 90.5l4 91t3 81.5t1 62.5q0 76 -17 138.5t-57 106.5t-105.5 68t-162.5 24h-37v167h37q97 0 162.5 24.5t105.5 69t57 107t17 138.5q0 24 -1 62t-3 82.5l-4 93l-4 93t-3 82.5t-1 62
q0 103 48.5 206t143 190.5t233 152.5t318.5 94l34 -158q-133 -29 -236.5 -78.5t-174 -115.5t-107.5 -146t-37 -168q0 -27 1.5 -64.5t3 -80.5t4 -89t4 -89t3 -80.5t1.5 -63.5q0 -85 -22.5 -152t-64.5 -117t-102 -84t-136 -53q77 -22 137.5 -56.5t102 -84.5t63.5 -116.5
t22 -151.5q0 -40 -2.5 -101.5t-6 -127t-6 -126.5t-2.5 -101q0 -89 37 -168.5t107.5 -145.5t174 -115.5t236.5 -79.5l-34 -158v0z" />
    <glyph glyph-name="bar" unicode="|" horiz-adv-x="929" 
d="M374 2392h181v-2752h-181v2752z" />
    <glyph glyph-name="braceright" unicode="}" horiz-adv-x="1489" 
d="M162 -476q133 30 236.5 79.5t174 115.5t107.5 145.5t37 168.5q0 40 -2.5 101t-6 126.5t-6 127t-2.5 101.5q0 85 22 151.5t63.5 116.5t102 84.5t137.5 56.5q-76 19 -136 53t-102 84t-64.5 117t-22.5 152q0 26 1.5 63.5t3 80.5t4 89t4 89t3 80.5t1.5 64.5q0 88 -37 168
t-107.5 146t-174 115.5t-236.5 78.5l34 158q180 -29 318.5 -94t233 -152.5t143 -190.5t48.5 -206q0 -24 -1 -62t-3 -82.5l-4 -93l-4 -93t-3 -82.5t-1 -62q0 -76 17 -138.5t57 -107t105.5 -69t162.5 -24.5h37v-167h-37q-97 0 -162.5 -24t-105.5 -68t-57 -106.5t-17 -138.5
q0 -25 1 -62.5t3 -81.5l4 -91l4 -90.5t3 -81t1 -61.5q0 -104 -48.5 -206.5t-143 -190t-233 -152.5t-318.5 -93z" />
    <glyph glyph-name="asciitilde" unicode="~" horiz-adv-x="1567" 
d="M1036 762q-34 0 -77.5 9t-91 22t-96.5 29t-93.5 29t-83 22t-65.5 9q-25 0 -51.5 -7t-51.5 -23.5t-46.5 -43t-36.5 -65.5l-133 37q19 79 53.5 134.5t77 90t90.5 50t96 15.5q34 0 76.5 -8.5t88.5 -21.5t93.5 -28.5t93 -28.5t85.5 -21.5t72 -8.5q21 0 47 6.5t52.5 22.5
t50 41.5t38.5 64.5l133 -36q-20 -80 -55 -135t-78 -89.5t-91.5 -50t-96.5 -15.5z" />
    <glyph glyph-name="saraamleft" horiz-adv-x="1286" 
d="M484 1722q144 0 245.5 -43.5t166 -123.5t94.5 -193t30 -253v-1109h-236v1108q0 97 -15 175.5t-50 133t-91.5 84t-138.5 29.5q-57 0 -112.5 -17t-106 -47t-93.5 -72t-75 -91l-142 133q44 62 99.5 114.5t121.5 90.5t141.5 59.5t161.5 21.5zM-1243 2228q0 56 21 105t58 86
t86 58t105 21t105 -21t86 -58t58 -86t21 -105t-21 -105t-58 -86t-86 -58t-105 -21t-105 21t-86 58t-58 86t-21 105zM-1085 2228q0 -25 8 -47.5t23 -39t35.5 -26t45.5 -9.5t45.5 9.5t35.5 26t23 39t8 47.5t-8 47.5t-23 39t-35.5 26t-45.5 9.5t-45.5 -9.5t-35.5 -26t-23 -39
t-8 -47.5z" />
    <glyph glyph-name="saraileftthai" 
d="M-1835 2151h1101v-193h-1101v193z" />
    <glyph glyph-name="saraileftthai" unicode="&#xf701;" 
d="M-1835 2151h1101v-193h-1101v193z" />
    <glyph glyph-name="saraiileftthai" 
d="M-1835 2151h866v295h235v-488h-1101v193z" />
    <glyph glyph-name="saraiileftthai" unicode="&#xf702;" 
d="M-1835 2151h866v295h235v-488h-1101v193z" />
    <glyph glyph-name="saraueleftthai" 
d="M-1835 2151h680q-8 18 -11 39t-3 30q0 60 18 108.5t51.5 82.5t82 52t108.5 18t107.5 -18t81.5 -52t52 -82.5t18 -108.5t-20 -108t-55.5 -82.5t-84 -53t-104.5 -18.5h-921v193zM-1008 2221q0 -54 23 -80.5t76 -26.5q52 0 75.5 26.5t23.5 80.5q0 53 -23.5 81t-75.5 28
q-53 0 -76 -28t-23 -81z" />
    <glyph glyph-name="saraueleftthai" unicode="&#xf703;" 
d="M-1835 2151h680q-8 18 -11 39t-3 30q0 60 18 108.5t51.5 82.5t82 52t108.5 18t107.5 -18t81.5 -52t52 -82.5t18 -108.5t-20 -108t-55.5 -82.5t-84 -53t-104.5 -18.5h-921v193zM-1008 2221q0 -54 23 -80.5t76 -26.5q52 0 75.5 26.5t23.5 80.5q0 53 -23.5 81t-75.5 28
q-53 0 -76 -28t-23 -81z" />
    <glyph glyph-name="saraueeleftthai" 
d="M-1835 2151h566v295h195v-295h145v295h195v-488h-1101v193z" />
    <glyph glyph-name="saraueeleftthai" unicode="&#xf704;" 
d="M-1835 2151h566v295h195v-295h145v295h195v-488h-1101v193z" />
    <glyph glyph-name="maieklowleftthai" 
d="M-1114 1961v561h224v-561h-224z" />
    <glyph glyph-name="maieklowleftthai" unicode="&#xf705;" 
d="M-1114 1961v561h224v-561h-224z" />
    <glyph glyph-name="maitholowleftthai" 
d="M-619 2448q-15 -72 -49.5 -138.5t-89 -123t-129.5 -100t-171 -70.5q-120 -34 -216 -45.5t-162 -17.5l-50 131q24 17 43 41q16 20 29.5 48.5t13.5 63.5q0 40 -18.5 52.5t-65.5 8.5q-23 -2 -41.5 -7t-41.5 -15l-50 145q36 20 74 33.5t70.5 21t56.5 10.5t32 3q49 0 83.5 -15
t56 -40.5t31 -58t9.5 -68.5q0 -18 -5 -39.5t-13 -43.5t-17 -42.5t-18 -36.5q178 26 279.5 101.5t131.5 202.5z" />
    <glyph glyph-name="maitholowleftthai" unicode="&#xf706;" 
d="M-619 2448q-15 -72 -49.5 -138.5t-89 -123t-129.5 -100t-171 -70.5q-120 -34 -216 -45.5t-162 -17.5l-50 131q24 17 43 41q16 20 29.5 48.5t13.5 63.5q0 40 -18.5 52.5t-65.5 8.5q-23 -2 -41.5 -7t-41.5 -15l-50 145q36 20 74 33.5t70.5 21t56.5 10.5t32 3q49 0 83.5 -15
t56 -40.5t31 -58t9.5 -68.5q0 -18 -5 -39.5t-13 -43.5t-17 -42.5t-18 -36.5q178 26 279.5 101.5t131.5 202.5z" />
    <glyph glyph-name="maitrilowleftthai" 
d="M-1394 2380q55 41 108 62.5t95 21.5q53 0 87.5 -15t54.5 -39.5t27.5 -55.5t7.5 -64q0 -29 -8 -59t-22 -56q42 22 72 57t49.5 73.5t29 76.5t9.5 67h198q-8 -60 -32 -118t-60.5 -110.5t-84.5 -98t-104 -79t-118.5 -54t-128.5 -23.5h-11l-40 132q17 3 32 15t26.5 29.5t18 38
t6.5 40.5q0 42 -12.5 59t-37.5 17q-17 0 -39.5 -10t-45 -23.5l-42 -26t-29.5 -17.5h-12q-11 5 -27.5 17.5t-36 25t-40.5 22.5t-41 10q-29 0 -45 -24t-16 -61q0 -40 21 -62.5t59 -25.5q16 -2 32 1l-42 -144q-11 -5 -26 -7t-37 0q-53 3 -89.5 28.5t-58 63.5t-30.5 83t-8 89
q2 51 19 93t44.5 72t65 46.5t79.5 16.5q53 0 95.5 -22t87.5 -62z" />
    <glyph glyph-name="maitrilowleftthai" unicode="&#xf707;" 
d="M-1394 2380q55 41 108 62.5t95 21.5q53 0 87.5 -15t54.5 -39.5t27.5 -55.5t7.5 -64q0 -29 -8 -59t-22 -56q42 22 72 57t49.5 73.5t29 76.5t9.5 67h198q-8 -60 -32 -118t-60.5 -110.5t-84.5 -98t-104 -79t-118.5 -54t-128.5 -23.5h-11l-40 132q17 3 32 15t26.5 29.5t18 38
t6.5 40.5q0 42 -12.5 59t-37.5 17q-17 0 -39.5 -10t-45 -23.5l-42 -26t-29.5 -17.5h-12q-11 5 -27.5 17.5t-36 25t-40.5 22.5t-41 10q-29 0 -45 -24t-16 -61q0 -40 21 -62.5t59 -25.5q16 -2 32 1l-42 -144q-11 -5 -26 -7t-37 0q-53 3 -89.5 28.5t-58 63.5t-30.5 83t-8 89
q2 51 19 93t44.5 72t65 46.5t79.5 16.5q53 0 95.5 -22t87.5 -62z" />
    <glyph glyph-name="maichattawalowleftthai" 
d="M-1535 2332h266v201h215v-201h266v-175h-266v-200h-215v200h-266v175z" />
    <glyph glyph-name="maichattawalowleftthai" unicode="&#xf708;" 
d="M-1535 2332h266v201h215v-201h266v-175h-266v-200h-215v200h-266v175z" />
    <glyph glyph-name="thanthakhatlowleftthai" 
d="M-648 2237h-356q-50 0 -69 -24t-19 -65q0 -15 11.5 -45t28.5 -57l-186 -70q-29 34 -46 68t-26 63.5t-12 52.5t-3 36q0 69 27 111t68 65t89.5 31t91.5 8h401v-174z" />
    <glyph glyph-name="thanthakhatlowleftthai" unicode="&#xf709;" 
d="M-648 2237h-356q-50 0 -69 -24t-19 -65q0 -15 11.5 -45t28.5 -57l-186 -70q-29 34 -46 68t-26 63.5t-12 52.5t-3 36q0 69 27 111t68 65t89.5 31t91.5 8h401v-174z" />
    <glyph glyph-name="maieklowrightthai" 
d="M-490 1961v561h224v-561h-224z" />
    <glyph glyph-name="maieklowrightthai" unicode="&#xf70a;" 
d="M-490 1961v561h224v-561h-224z" />
    <glyph glyph-name="maitholowrightthai" 
d="M-145 2448q-15 -72 -55.5 -138.5t-103 -123t-143.5 -100t-177 -70.5q-120 -34 -216 -45.5t-162 -17.5l-50 131q24 17 43 41q16 20 29.5 48.5t13.5 63.5q0 40 -18.5 52.5t-65.5 8.5q-23 -2 -41.5 -7t-41.5 -15l-50 145q36 20 74 33.5t70.5 21t56.5 10.5t32 3
q49 0 83.5 -15t56 -40.5t31 -58t9.5 -68.5q0 -18 -5 -39.5t-13 -43.5t-17 -42.5t-18 -36.5q79 12 153.5 37t135.5 63.5t104 89.5t58 114z" />
    <glyph glyph-name="maitholowrightthai" unicode="&#xf70b;" 
d="M-145 2448q-15 -72 -55.5 -138.5t-103 -123t-143.5 -100t-177 -70.5q-120 -34 -216 -45.5t-162 -17.5l-50 131q24 17 43 41q16 20 29.5 48.5t13.5 63.5q0 40 -18.5 52.5t-65.5 8.5q-23 -2 -41.5 -7t-41.5 -15l-50 145q36 20 74 33.5t70.5 21t56.5 10.5t32 3
q49 0 83.5 -15t56 -40.5t31 -58t9.5 -68.5q0 -18 -5 -39.5t-13 -43.5t-17 -42.5t-18 -36.5q79 12 153.5 37t135.5 63.5t104 89.5t58 114z" />
    <glyph glyph-name="maitrilowrightthai" 
d="M-825 2380q55 41 108 62.5t95 21.5q53 0 87.5 -15t54.5 -39.5t27.5 -55.5t7.5 -64q0 -29 -8 -59t-22 -56q42 22 72 57t49.5 73.5t29 76.5t9.5 67h198q-8 -60 -32 -118t-60.5 -110.5t-84.5 -98t-104 -79t-118.5 -54t-128.5 -23.5h-11l-40 132q17 3 32 15t26.5 29.5t18 38
t6.5 40.5q0 42 -12.5 59t-37.5 17q-17 0 -39.5 -10t-45 -23.5l-42 -26t-29.5 -17.5h-12q-11 5 -27.5 17.5t-36 25t-40.5 22.5t-41 10q-29 0 -45 -24t-16 -61q0 -40 21 -62.5t59 -25.5q16 -2 32 1l-42 -144q-11 -5 -26 -7t-37 0q-53 3 -89.5 28.5t-58 63.5t-30.5 83t-8 89
q2 51 19 93t44.5 72t65 46.5t79.5 16.5q53 0 95.5 -22t87.5 -62z" />
    <glyph glyph-name="maitrilowrightthai" unicode="&#xf70c;" 
d="M-825 2380q55 41 108 62.5t95 21.5q53 0 87.5 -15t54.5 -39.5t27.5 -55.5t7.5 -64q0 -29 -8 -59t-22 -56q42 22 72 57t49.5 73.5t29 76.5t9.5 67h198q-8 -60 -32 -118t-60.5 -110.5t-84.5 -98t-104 -79t-118.5 -54t-128.5 -23.5h-11l-40 132q17 3 32 15t26.5 29.5t18 38
t6.5 40.5q0 42 -12.5 59t-37.5 17q-17 0 -39.5 -10t-45 -23.5l-42 -26t-29.5 -17.5h-12q-11 5 -27.5 17.5t-36 25t-40.5 22.5t-41 10q-29 0 -45 -24t-16 -61q0 -40 21 -62.5t59 -25.5q16 -2 32 1l-42 -144q-11 -5 -26 -7t-37 0q-53 3 -89.5 28.5t-58 63.5t-30.5 83t-8 89
q2 51 19 93t44.5 72t65 46.5t79.5 16.5q53 0 95.5 -22t87.5 -62z" />
    <glyph glyph-name="maichattawalowrightthai" 
d="M-971 2332h266v201h215v-201h266v-175h-266v-200h-215v200h-266v175z" />
    <glyph glyph-name="maichattawalowrightthai" unicode="&#xf70d;" 
d="M-971 2332h266v201h215v-201h266v-175h-266v-200h-215v200h-266v175z" />
    <glyph glyph-name="thanthakhatlowrightthai" 
d="M-134 2237h-356q-50 0 -69 -24t-19 -65q0 -15 11.5 -45t28.5 -57l-186 -70q-29 34 -46 68t-26 63.5t-12 52.5t-3 36q0 69 27 111t68 65t89.5 31t91.5 8h401v-174z" />
    <glyph glyph-name="thanthakhatlowrightthai" unicode="&#xf70e;" 
d="M-134 2237h-356q-50 0 -69 -24t-19 -65q0 -15 11.5 -45t28.5 -57l-186 -70q-29 34 -46 68t-26 63.5t-12 52.5t-3 36q0 69 27 111t68 65t89.5 31t91.5 8h401v-174z" />
    <glyph glyph-name="maihanakatleftthai" 
d="M-134 1958h-923q-66 0 -113.5 15t-79.5 39t-52 55t-30 63t-13.5 63t-3.5 55v108h225v-92q0 -63 29.5 -88t86.5 -25h874v-193z" />
    <glyph glyph-name="maihanakatleftthai" unicode="&#xf710;" 
d="M-134 1958h-923q-66 0 -113.5 15t-79.5 39t-52 55t-30 63t-13.5 63t-3.5 55v108h225v-92q0 -63 29.5 -88t86.5 -25h874v-193z" />
    <glyph glyph-name="nikhahitleftthai" 
d="M-1243 2228q0 56 21 105t58 86t86 58t105 21t105 -21t86 -58t58 -86t21 -105t-21 -105t-58 -86t-86 -58t-105 -21t-105 21t-86 58t-58 86t-21 105zM-1085 2228q0 -25 8 -47.5t23 -39t35.5 -26t45.5 -9.5t45.5 9.5t35.5 26t23 39t8 47.5t-8 47.5t-23 39t-35.5 26
t-45.5 9.5t-45.5 -9.5t-35.5 -26t-23 -39t-8 -47.5z" />
    <glyph glyph-name="nikhahitleftthai" unicode="&#xf711;" 
d="M-1243 2228q0 56 21 105t58 86t86 58t105 21t105 -21t86 -58t58 -86t21 -105t-21 -105t-58 -86t-86 -58t-105 -21t-105 21t-86 58t-58 86t-21 105zM-1085 2228q0 -25 8 -47.5t23 -39t35.5 -26t45.5 -9.5t45.5 9.5t35.5 26t23 39t8 47.5t-8 47.5t-23 39t-35.5 26
t-45.5 9.5t-45.5 -9.5t-35.5 -26t-23 -39t-8 -47.5z" />
    <glyph glyph-name="maitaikhuleftthai" 
d="M-1360 1917q-64 7 -118.5 26.5t-94.5 52t-62.5 77t-22.5 100.5q0 57 29 107t87.5 88t146 60t205.5 22q28 0 63.5 -3.5t70 -8.5t64.5 -10.5t48 -10.5l61 97h205l-163 -267q-27 12 -72.5 23t-96 20t-99.5 14t-83 5q-47 0 -94.5 -7t-86 -23t-63 -42t-24.5 -64q0 -23 9 -40
t22.5 -28.5t30 -18.5t31.5 -11l208 82q24 -30 46.5 -48.5t43.5 -29t40 -14.5t35 -4q29 0 50 13t21 44q0 16 -9 39h178q5 -13 7 -27.5t2 -27.5q0 -36 -16 -70t-45 -60t-69 -41.5t-89 -14.5q-24 0 -52.5 5.5t-57.5 16t-55.5 26.5t-45.5 38z" />
    <glyph glyph-name="maitaikhuleftthai" unicode="&#xf712;" 
d="M-1360 1917q-64 7 -118.5 26.5t-94.5 52t-62.5 77t-22.5 100.5q0 57 29 107t87.5 88t146 60t205.5 22q28 0 63.5 -3.5t70 -8.5t64.5 -10.5t48 -10.5l61 97h205l-163 -267q-27 12 -72.5 23t-96 20t-99.5 14t-83 5q-47 0 -94.5 -7t-86 -23t-63 -42t-24.5 -64q0 -23 9 -40
t22.5 -28.5t30 -18.5t31.5 -11l208 82q24 -30 46.5 -48.5t43.5 -29t40 -14.5t35 -4q29 0 50 13t21 44q0 16 -9 39h178q5 -13 7 -27.5t2 -27.5q0 -36 -16 -70t-45 -60t-69 -41.5t-89 -14.5q-24 0 -52.5 5.5t-57.5 16t-55.5 26.5t-45.5 38z" />
    <glyph glyph-name="maiekupperleftthai" 
d="M-949 2590v431h215v-431h-215z" />
    <glyph glyph-name="maiekupperleftthai" unicode="&#xf713;" 
d="M-949 2590v431h215v-431h-215z" />
    <glyph glyph-name="maithoupperleftthai" 
d="M-464 3003q-13 -61 -44 -117.5t-79.5 -104.5t-114 -85t-146.5 -60q-101 -29 -182.5 -38.5t-136.5 -14.5l-42 111q22 19 40 38q15 17 28 37t13 40q0 17 -8 29t-20 20t-26 12t-26 4q-19 0 -34.5 -5t-35.5 -13l-42 122q30 17 61 28t57 17t44.5 8.5t25.5 2.5q42 0 73.5 -11.5
t53.5 -31t33 -46t11 -56.5t-11.5 -68t-36.5 -67q62 8 119.5 27.5t103.5 51t78.5 74t45.5 95.5z" />
    <glyph glyph-name="maithoupperleftthai" unicode="&#xf714;" 
d="M-464 3003q-13 -61 -44 -117.5t-79.5 -104.5t-114 -85t-146.5 -60q-101 -29 -182.5 -38.5t-136.5 -14.5l-42 111q22 19 40 38q15 17 28 37t13 40q0 17 -8 29t-20 20t-26 12t-26 4q-19 0 -34.5 -5t-35.5 -13l-42 122q30 17 61 28t57 17t44.5 8.5t25.5 2.5q42 0 73.5 -11.5
t53.5 -31t33 -46t11 -56.5t-11.5 -68t-36.5 -67q62 8 119.5 27.5t103.5 51t78.5 74t45.5 95.5z" />
    <glyph glyph-name="maitriupperleftthai" 
d="M-988 2954q56 44 103.5 63.5t92.5 19.5q41 0 69 -15t45.5 -38t25.5 -49.5t8 -48.5q0 -28 -6.5 -58t-17.5 -53q33 20 59 50.5t44 64.5t27.5 67t9.5 59h171q-6 -57 -27.5 -110.5t-54.5 -100.5t-75.5 -86.5t-89 -68t-95.5 -45t-96 -17.5h-16t-16 1l-34 108q25 8 43 28
q8 7 13 19t8 24.5t4 25.5t1 23q0 22 -5.5 36t-13 21.5t-15.5 10.5t-14 3q-20 0 -41 -8.5t-40.5 -20t-35.5 -22.5t-26 -15h-10q-10 4 -24.5 15t-32.5 22.5t-38 20t-39 8.5q-33 0 -47 -24t-12 -55q2 -36 24 -55t48 -22q12 -2 28 1l-37 -135q-11 -4 -28 -7.5t-37 -1.5
q-43 3 -75 26t-52.5 57t-30 75t-8.5 80q1 45 15 83.5t37.5 66.5t54.5 44t66 16q58 0 105.5 -23t87.5 -60z" />
    <glyph glyph-name="maitriupperleftthai" unicode="&#xf715;" 
d="M-988 2954q56 44 103.5 63.5t92.5 19.5q41 0 69 -15t45.5 -38t25.5 -49.5t8 -48.5q0 -28 -6.5 -58t-17.5 -53q33 20 59 50.5t44 64.5t27.5 67t9.5 59h171q-6 -57 -27.5 -110.5t-54.5 -100.5t-75.5 -86.5t-89 -68t-95.5 -45t-96 -17.5h-16t-16 1l-34 108q25 8 43 28
q8 7 13 19t8 24.5t4 25.5t1 23q0 22 -5.5 36t-13 21.5t-15.5 10.5t-14 3q-20 0 -41 -8.5t-40.5 -20t-35.5 -22.5t-26 -15h-10q-10 4 -24.5 15t-32.5 22.5t-38 20t-39 8.5q-33 0 -47 -24t-12 -55q2 -36 24 -55t48 -22q12 -2 28 1l-37 -135q-11 -4 -28 -7.5t-37 -1.5
q-43 3 -75 26t-52.5 57t-30 75t-8.5 80q1 45 15 83.5t37.5 66.5t54.5 44t66 16q58 0 105.5 -23t87.5 -60z" />
    <glyph glyph-name="maichattawaupperleftthai" 
d="M-1254 2922h240v169h211v-169h240v-164h-240v-168h-211v168h-240v164z" />
    <glyph glyph-name="maichattawaupperleftthai" unicode="&#xf716;" 
d="M-1254 2922h240v169h211v-169h240v-164h-240v-168h-211v168h-240v164z" />
    <glyph glyph-name="thanthakhatupperleftthai" 
d="M-419 2577h-346q-45 0 -67.5 -24t-22.5 -58q0 -29 15 -52.5l32 -50.5l-181 -86q-28 31 -45 65t-26.5 64t-12.5 54t-3 37q0 69 27 111t68 65t89.5 31t91.5 8h381v-164z" />
    <glyph glyph-name="thanthakhatupperleftthai" unicode="&#xf717;" 
d="M-419 2577h-346q-45 0 -67.5 -24t-22.5 -58q0 -29 15 -52.5l32 -50.5l-181 -86q-28 31 -45 65t-26.5 64t-12.5 54t-3 37q0 69 27 111t68 65t89.5 31t91.5 8h381v-164z" />
    <glyph glyph-name="uni0E3D" unicode="&#xe3d;" 
 />
    <glyph glyph-name="guide" 
 />
    <glyph glyph-name="chochangthai" unicode="&#xe0a;" horiz-adv-x="1659" 
d="M1112 1175q96 -26 172 -78.5t128.5 -125t80.5 -162.5t28 -192q0 -132 -50 -248t-136.5 -202.5t-202.5 -136.5t-248 -50t-248 50t-202.5 136.5t-136.5 202.5t-50 248q0 86 19.5 158t50 130t69 103.5t76.5 78.5q66 58 109.5 122.5t43.5 139.5q0 84 -43.5 124.5t-116.5 40.5
q-65 -2 -115.5 -29t-85.5 -64l-101 167q31 31 71.5 53.5t82.5 37t83 21t75 6.5q73 -1 140 -22t118 -64.5t81.5 -110.5t30.5 -160q0 -73 -19 -129.5t-48.5 -103t-66 -86l-71.5 -78.5q-34 -38 -61.5 -74.5t-47.5 -77t-31.5 -85.5t-11.5 -99q0 -84 29 -159.5t82 -132t127.5 -90
t166.5 -33.5q91 0 166 33.5t128 90t82 132t29 159.5q0 76 -24 145t-68.5 124t-107.5 92.5t-140 52.5q-32 6 -59.5 10t-44.5 4v143l463 513h291z" />
    <glyph glyph-name="maiekthai.alt1" 
d="M-481 2440v431h215v-431h-215z" />
    <glyph glyph-name="maithothai.alt1" 
d="M-120 2863q-13 -61 -44 -117.5t-79.5 -104.5t-114 -85t-146.5 -60q-101 -29 -182.5 -38.5t-136.5 -14.5l-42 111q22 19 40 38q15 17 28 37t13 40q0 17 -8 29t-20 20t-26 12t-26 4q-19 0 -34.5 -5t-35.5 -13l-42 122q30 17 61 28t57 17t44.5 8.5t25.5 2.5q42 0 73.5 -11.5
t53.5 -31t33 -46t11 -56.5t-11.5 -68t-36.5 -67q62 8 119.5 27.5t103.5 51t78.5 74t45.5 95.5z" />
    <glyph glyph-name="maitrithai.alt1" 
d="M-637 2804q56 44 103.5 63.5t92.5 19.5q41 0 69 -15t45.5 -38t25.5 -49.5t8 -48.5q0 -28 -6.5 -58t-17.5 -53q33 20 59 50.5t44 64.5t27.5 67t9.5 59h171q-6 -57 -27.5 -110.5t-54.5 -100.5t-75.5 -86.5t-89 -68t-95.5 -45t-96 -17.5h-16t-16 1l-34 108q25 8 43 28
q8 7 13 19t8 24.5t4 25.5t1 23q0 22 -5.5 36t-13 21.5t-15.5 10.5t-14 3q-20 0 -41 -8.5t-40.5 -20t-35.5 -22.5t-26 -15h-10q-10 4 -24.5 15t-32.5 22.5t-38 20t-39 8.5q-33 0 -47 -24t-12 -55q2 -36 24 -55t48 -22q12 -2 28 1l-37 -135q-11 -4 -28 -7.5t-37 -1.5
q-43 3 -75 26t-52.5 57t-30 75t-8.5 80q1 45 15 83.5t37.5 66.5t54.5 44t66 16q58 0 105.5 -23t87.5 -60z" />
    <glyph glyph-name="maichattawathai.alt1" 
d="M-720 2772h240v169h211v-169h240v-164h-240v-168h-211v168h-240v164z" />
    <glyph glyph-name="maiekupperleftthai.alt2" 
d="M-949 2450v431h215v-431h-215z" />
    <glyph glyph-name="maithoupperleftthai.alt2" 
d="M-364 2883q-13 -61 -44 -117.5t-79.5 -104.5t-114 -85t-146.5 -60q-101 -29 -182.5 -38.5t-136.5 -14.5l-42 111q22 19 40 38q15 17 28 37t13 40q0 17 -8 29t-20 20t-26 12t-26 4q-19 0 -34.5 -5t-35.5 -13l-42 122q30 17 61 28t57 17t44.5 8.5t25.5 2.5q42 0 73.5 -11.5
t53.5 -31t33 -46t11 -56.5t-11.5 -68t-36.5 -67q62 8 119.5 27.5t103.5 51t78.5 74t45.5 95.5z" />
    <glyph glyph-name="maitriupperleftthai.alt2" 
d="M-988 2814q56 44 103.5 63.5t92.5 19.5q41 0 69 -15t45.5 -38t25.5 -49.5t8 -48.5q0 -28 -6.5 -58t-17.5 -53q33 20 59 50.5t44 64.5t27.5 67t9.5 59h171q-6 -57 -27.5 -110.5t-54.5 -100.5t-75.5 -86.5t-89 -68t-95.5 -45t-96 -17.5h-16t-16 1l-34 108q25 8 43 28
q8 7 13 19t8 24.5t4 25.5t1 23q0 22 -5.5 36t-13 21.5t-15.5 10.5t-14 3q-20 0 -41 -8.5t-40.5 -20t-35.5 -22.5t-26 -15h-10q-10 4 -24.5 15t-32.5 22.5t-38 20t-39 8.5q-33 0 -47 -24t-12 -55q2 -36 24 -55t48 -22q12 -2 28 1l-37 -135q-11 -4 -28 -7.5t-37 -1.5
q-43 3 -75 26t-52.5 57t-30 75t-8.5 80q1 45 15 83.5t37.5 66.5t54.5 44t66 16q58 0 105.5 -23t87.5 -60z" />
    <glyph glyph-name="maichattawaupperleftthai.alt2" 
d="M-1254 2782h240v169h211v-169h240v-164h-240v-168h-211v168h-240v164z" />
    <glyph glyph-name="maitaikhuthai.alt3" 
d="M-933 1917q-68 7 -125 28t-99 55t-65.5 81t-23.5 106t27.5 112t85 92.5t146.5 63t213 23.5q30 0 65.5 -3.5t70 -9t64.5 -11.5t49 -11l64 102h216l-172 -281q-29 13 -75 25t-97 21t-101 14.5t-86 5.5q-49 0 -96 -7.5t-84 -24.5t-59.5 -44t-22.5 -67q0 -25 9.5 -42.5
t23.5 -29.5t31.5 -20t33.5 -12l199 87q25 -31 47.5 -50.5t42.5 -31t38 -15.5t35 -4q32 0 53.5 14t21.5 46q0 17 -9 41h187q5 -14 7 -29t2 -29q0 -38 -16.5 -73.5t-47 -63t-73 -44t-93.5 -15.5q-25 0 -53.5 5.5t-57 17t-54.5 28.5t-47 40z" />
    <glyph glyph-name="saraithai.alt3" 
d="M-1393 2151h1127v-193h-1127v193z" />
    <glyph glyph-name="saraiithai.alt3" 
d="M-1393 2151h892v295h235v-488h-1127v193z" />
    <glyph glyph-name="sarauethai.alt3" 
d="M-1393 2151h712q-8 18 -11 39t-3 30q0 60 18 108.5t51.5 82.5t82 52t108.5 18t107.5 -18t81.5 -52t52 -82.5t18 -108.5t-20 -108t-55.5 -82.5t-84 -53t-104.5 -18.5h-953v193zM-534 2221q0 -54 23 -80.5t76 -26.5q52 0 75.5 26.5t23.5 80.5q0 53 -23.5 81t-75.5 28
q-53 0 -76 -28t-23 -81z" />
    <glyph glyph-name="saraueethai.alt3" 
d="M-1393 2151h592v295h195v-295h145v295h195v-488h-1127v193z" />
    <glyph glyph-name="maitaikhuthai.alt4" 
d="M-813 1917q-68 7 -125 28t-99 55t-65.5 81t-23.5 106t30.5 112t92 92.5t153.5 63t216 23.5q30 0 67 -3.5t73.5 -9t68 -11.5t50.5 -11l64 102h216l-172 -281q-29 13 -76.5 25t-100.5 21t-104.5 14.5t-87.5 5.5q-49 0 -99.5 -7.5t-91 -24.5t-66 -44t-25.5 -67
q0 -25 9.5 -42.5t23.5 -29.5t31.5 -20t33.5 -12l219 87q25 -31 49 -50.5t46 -31t41.5 -15.5t36.5 -4q32 0 53.5 14t21.5 46q0 17 -9 41h187q5 -14 7 -29t2 -29q0 -38 -16.5 -73.5t-47 -63t-73 -44t-93.5 -15.5q-25 0 -55 5.5t-60.5 17t-58 28.5t-48.5 40z" />
    <glyph glyph-name="saraithai.alt4" 
d="M-1253 2151h1157v-193h-1157v193z" />
    <glyph glyph-name="saraiithai.alt4" 
d="M-1253 2151h922v295h235v-488h-1157v193z" />
    <glyph glyph-name="sarauethai.alt4" 
d="M-1253 2151h652q-8 18 -11 39t-3 30q0 60 18 108.5t51.5 82.5t82 52t108.5 18t107.5 -18t81.5 -52t52 -82.5t18 -108.5t-20 -108t-55.5 -82.5t-84 -53t-104.5 -18.5h-893v193zM-454 2221q0 -54 23 -80.5t76 -26.5q52 0 75.5 26.5t23.5 80.5q0 53 -23.5 81t-75.5 28
q-53 0 -76 -28t-23 -81z" />
    <glyph glyph-name="saraueethai.alt4" 
d="M-1253 2151h622v295h195v-295h145v295h195v-488h-1157v193z" />
    <glyph glyph-name="maiekthai.alt4" 
d="M-313 2590v431h215v-431h-215z" />
    <glyph glyph-name="maithothai.alt4" 
d="M141 3003q-13 -61 -44 -117.5t-79.5 -104.5t-114 -85t-146.5 -60q-101 -29 -182.5 -38.5t-136.5 -14.5l-42 111q22 19 40 38q15 17 28 37t13 40q0 17 -8 29t-20 20t-26 12t-26 4q-19 0 -34.5 -5t-35.5 -13l-42 122q30 17 61 28t57 17t44.5 8.5t25.5 2.5q42 0 73.5 -11.5
t53.5 -31t33 -46t11 -56.5t-11.5 -68t-36.5 -67q62 8 119.5 27.5t103.5 51t78.5 74t45.5 95.5z" />
    <glyph glyph-name="maitrithai.alt4" 
d="M-307 2954q56 44 103.5 63.5t92.5 19.5q41 0 69 -15t45.5 -38t25.5 -49.5t8 -48.5q0 -28 -6.5 -58t-17.5 -53q33 20 59 50.5t44 64.5t27.5 67t9.5 59h171q-6 -57 -27.5 -110.5t-54.5 -100.5t-75.5 -86.5t-89 -68t-95.5 -45t-96 -17.5h-16t-16 1l-34 108q25 8 43 28
q8 7 13 19t8 24.5t4 25.5t1 23q0 22 -5.5 36t-13 21.5t-15.5 10.5t-14 3q-20 0 -41 -8.5t-40.5 -20t-35.5 -22.5t-26 -15h-10q-10 4 -24.5 15t-32.5 22.5t-38 20t-39 8.5q-33 0 -47 -24t-12 -55q2 -36 24 -55t48 -22q12 -2 28 1l-37 -135q-11 -4 -28 -7.5t-37 -1.5
q-43 3 -75 26t-52.5 57t-30 75t-8.5 80q1 45 15 83.5t37.5 66.5t54.5 44t66 16q58 0 105.5 -23t87.5 -60z" />
    <glyph glyph-name="maichattawathai.alt4" 
d="M-550 2922h240v169h211v-169h240v-164h-240v-168h-211v168h-240v164z" />
    <glyph glyph-name="thanthakhatthai.alt4" 
d="M197 2582h-346q-45 0 -67.5 -24t-22.5 -58q0 -29 15 -52.5l32 -50.5l-181 -86q-28 31 -45 65t-26.5 64t-12.5 54t-3 37q0 69 27 111t68 65t89.5 31t91.5 8h381v-164z" />
    <glyph glyph-name="sarauthai.alt4" 
d="M-741 -726v268q0 43 -18.5 69t-59.5 26q-23 0 -43.5 -6t-43.5 -17l-54 154q38 22 75.5 34.5t68.5 19t53.5 8.5t31.5 2q66 0 109.5 -23t69 -57.5t36 -76t10.5 -78.5v-323h-235z" />
    <glyph glyph-name="sarauuthai.alt4" 
d="M-1196 -237q21 13 50 23t58.5 17t57 10.5t45.5 3.5q57 0 89 -17t47.5 -44.5t18.5 -63t3 -72.5v-34q0 -84 36 -123.5t93 -39.5q25 0 48 9t40 28.5t27.5 50.5t10.5 76v224h235v-209q0 -77 -20.5 -140t-65 -107.5t-114 -69t-168.5 -24.5t-166.5 22t-109 62.5t-58.5 97
t-14 124.5q2 40 -8.5 57t-39.5 17q-8 0 -28 -3.5t-38 -11.5z" />
    <glyph glyph-name="phinthuthai.alt4" 
d="M-909 -345q0 37 14 69.5t38.5 57t56.5 38.5t68 14q37 0 69.5 -14t57 -38.5t38.5 -57t14 -69.5q0 -36 -14 -68t-38.5 -56.5t-57 -38.5t-69.5 -14q-36 0 -68 14t-56.5 38.5t-38.5 56.5t-14 68z" />
    <glyph glyph-name="saraamthai.alt4" horiz-adv-x="1366" 
d="M564 1733q145 0 246.5 -46.5t166 -129t94 -194.5t29.5 -243v-1120h-236v1119q0 204 -77.5 307t-217.5 103q-114 0 -202.5 -56t-154.5 -156l-155 131q36 55 87.5 106.5t116 91t141 63.5t162.5 24zM-455 2228q0 56 21 105t58 86t86 58t105 21t105 -21t86 -58t58 -86
t21 -105t-21 -105t-58 -86t-86 -58t-105 -21t-105 21t-86 58t-58 86t-21 105zM-297 2228q0 -25 8 -47.5t23 -39t35.5 -26t45.5 -9.5t45.5 9.5t35.5 26t23 39t8 47.5t-8 47.5t-23 39t-35.5 26t-45.5 9.5t-45.5 -9.5t-35.5 -26t-23 -39t-8 -47.5z" />
    <glyph glyph-name="nikhahitthai.alt4" 
d="M-455 2228q0 56 21 105t58 86t86 58t105 21t105 -21t86 -58t58 -86t21 -105t-21 -105t-58 -86t-86 -58t-105 -21t-105 21t-86 58t-58 86t-21 105zM-297 2228q0 -25 8 -47.5t23 -39t35.5 -26t45.5 -9.5t45.5 9.5t35.5 26t23 39t8 47.5t-8 47.5t-23 39t-35.5 26t-45.5 9.5
t-45.5 -9.5t-35.5 -26t-23 -39t-8 -47.5z" />
    <glyph glyph-name="maiekthai.alt5" 
d="M-291 2590v431h215v-431h-215z" />
    <glyph glyph-name="maithothai.alt5" 
d="M210 3003q-13 -61 -44 -117.5t-79.5 -104.5t-114 -85t-146.5 -60q-101 -29 -182.5 -38.5t-136.5 -14.5l-42 111q22 19 40 38q15 17 28 37t13 40q0 17 -8 29t-20 20t-26 12t-26 4q-19 0 -34.5 -5t-35.5 -13l-42 122q30 17 61 28t57 17t44.5 8.5t25.5 2.5q42 0 73.5 -11.5
t53.5 -31t33 -46t11 -56.5t-11.5 -68t-36.5 -67q62 8 119.5 27.5t103.5 51t78.5 74t45.5 95.5z" />
    <glyph glyph-name="maitrithai.alt5" 
d="M-237 2954q56 44 103.5 63.5t92.5 19.5q41 0 69 -15t45.5 -38t25.5 -49.5t8 -48.5q0 -28 -6.5 -58t-17.5 -53q33 20 59 50.5t44 64.5t27.5 67t9.5 59h171q-6 -57 -27.5 -110.5t-54.5 -100.5t-75.5 -86.5t-89 -68t-95.5 -45t-96 -17.5h-16t-16 1l-34 108q25 8 43 28
q8 7 13 19t8 24.5t4 25.5t1 23q0 22 -5.5 36t-13 21.5t-15.5 10.5t-14 3q-20 0 -41 -8.5t-40.5 -20t-35.5 -22.5t-26 -15h-10q-10 4 -24.5 15t-32.5 22.5t-38 20t-39 8.5q-33 0 -47 -24t-12 -55q2 -36 24 -55t48 -22q12 -2 28 1l-37 -135q-11 -4 -28 -7.5t-37 -1.5
q-43 3 -75 26t-52.5 57t-30 75t-8.5 80q1 45 15 83.5t37.5 66.5t54.5 44t66 16q58 0 105.5 -23t87.5 -60z" />
    <glyph glyph-name="maichattawathai.alt5" 
d="M-530 2922h240v169h211v-169h240v-164h-240v-168h-211v168h-240v164z" />
    <glyph glyph-name="sarauthai.alt6" 
d="M-611 -726v268q0 43 -18.5 69t-59.5 26q-23 0 -43.5 -6t-43.5 -17l-54 154q38 22 75.5 34.5t68.5 19t53.5 8.5t31.5 2q66 0 109.5 -23t69 -57.5t36 -76t10.5 -78.5v-323h-235z" />
    <glyph glyph-name="sarauuthai.alt6" 
d="M-1285 -237q21 13 50 23t58.5 17t57 10.5t45.5 3.5q57 0 89 -17t47.5 -44.5t18.5 -63t3 -72.5v-34q0 -42 11 -72.5t30 -51t44 -30t54 -9.5q25 0 49.5 9t43.5 28.5t31 50.5t12 76v224h235v-209q0 -77 -22 -140t-68.5 -107.5t-117.5 -69t-170 -24.5t-168 22t-112 62.5
t-62 97t-16 124.5q2 40 -8.5 57t-39.5 17q-8 0 -28 -3.5t-38 -11.5z" />
    <glyph glyph-name="phinthuthai.alt6" 
d="M-739 -345q0 37 14 69.5t38.5 57t56.5 38.5t68 14q37 0 69.5 -14t57 -38.5t38.5 -57t14 -69.5q0 -36 -14 -68t-38.5 -56.5t-57 -38.5t-69.5 -14q-36 0 -68 14t-56.5 38.5t-38.5 56.5t-14 68z" />
    <glyph glyph-name="sarauthai.alt7" 
d="M-711 -726v268q0 43 -18.5 69t-59.5 26q-23 0 -43.5 -6t-43.5 -17l-54 154q38 22 75.5 34.5t68.5 19t53.5 8.5t31.5 2q66 0 109.5 -23t69 -57.5t36 -76t10.5 -78.5v-323h-235z" />
    <glyph glyph-name="sarauuthai.alt7" 
d="M-1185 -237q21 13 50 23t58.5 17t57 10.5t45.5 3.5q57 0 89 -17t47.5 -44.5t18.5 -63t3 -72.5v-34q0 -42 11 -72.5t30 -51t44 -30t54 -9.5q25 0 49.5 9t43.5 28.5t31 50.5t12 76v224h235v-209q0 -77 -22 -140t-68.5 -107.5t-117.5 -69t-170 -24.5t-168 22t-112 62.5
t-62 97t-16 124.5q2 40 -8.5 57t-39.5 17q-8 0 -28 -3.5t-38 -11.5z" />
    <glyph glyph-name="phinthuthai.alt7" 
d="M-859 -345q0 37 14 69.5t38.5 57t56.5 38.5t68 14q37 0 69.5 -14t57 -38.5t38.5 -57t14 -69.5q0 -36 -14 -68t-38.5 -56.5t-57 -38.5t-69.5 -14q-36 0 -68 14t-56.5 38.5t-38.5 56.5t-14 68z" />
    <glyph glyph-name="saraithai.alt8" 
d="M-1563 2151h1297v-193h-1297v193z" />
    <glyph glyph-name="saraiithai.alt8" 
d="M-1563 2151h1062v295h235v-488h-1297v193z" />
    <glyph glyph-name="sarauethai.alt8" 
d="M-1563 2151h882q-8 18 -11 39t-3 30q0 60 18 108.5t51.5 82.5t82 52t108.5 18t107.5 -18t81.5 -52t52 -82.5t18 -108.5t-20 -108t-55.5 -82.5t-84 -53t-104.5 -18.5h-1123v193zM-534 2221q0 -54 23 -80.5t76 -26.5q52 0 75.5 26.5t23.5 80.5q0 53 -23.5 81t-75.5 28
q-53 0 -76 -28t-23 -81z" />
    <glyph glyph-name="saraueethai.alt8" 
d="M-1563 2151h762v295h195v-295h145v295h195v-488h-1297v193z" />
    </font>
</defs>
</svg>
